<?xml version="1.0" encoding="utf-8"?>
<!-- Generator: Adobe Illustrator 27.5.0, SVG Export Plug-In . SVG Version: 6.00 Build 0)  -->
<svg version="1.1" xmlns="http://www.w3.org/2000/svg" xmlns:xlink="http://www.w3.org/1999/xlink" x="0px" y="0px"
	 viewBox="0 0 3710 3710" style="enable-background:new 0 0 3710 3710;" xml:space="preserve">
<g id="Background">
	<g>
		<g>
			<rect style="fill:#FFFFFF;" width="3710" height="3710"/>
		</g>
	</g>
</g>
<g id="Illustration">
	<g>
		<linearGradient id="SVGID_1_" gradientUnits="userSpaceOnUse" x1="3602.5737" y1="4056.1541" x2="1125.7001" y2="980.0327">
			<stop  offset="0" style="stop-color:#B37CFF"/>
			<stop  offset="1" style="stop-color:#F895E7"/>
		</linearGradient>
		<path style="opacity:0.3;fill:url(#SVGID_1_);" d="M2927.539,2838.625c-57.242,59.654-111.404,98.123-154.196,128.517
			c-503.013,357.274-1098.212,253.13-1224.708,227.697c-186.796-37.556-547.867-110.151-808.916-414.039
			c-394.944-459.757-333.446-1184.092-27.1-1662.236c56.035-87.461,352.031-572.887,953.64-650.734
			c364.087-47.112,788.496,47.908,1095.841,302.802C3407.245,1305.679,3361.317,2386.567,2927.539,2838.625z"/>
		<g>
			<g>
				
					<linearGradient id="SVGID_00000013195190896698395530000006226652918061124737_" gradientUnits="userSpaceOnUse" x1="-3470.7678" y1="812.3779" x2="-4264.9668" y2="3726.1274" gradientTransform="matrix(-1 0 0 1 -2524.9526 0)">
					<stop  offset="0" style="stop-color:#CE1567"/>
					<stop  offset="1" style="stop-color:#7A1DBC"/>
				</linearGradient>
				<path style="fill:url(#SVGID_00000013195190896698395530000006226652918061124737_);" d="M2232.86,2565.671v117.18l-0.17,0.007
					c-7.184,70.725-302.996,200.616-732.644,203.018c-631.732,3.53-845.077-137.54-855.004-209.772h-0.236v-107.974
					L2232.86,2565.671z"/>
				
					<linearGradient id="SVGID_00000085220636598061030260000003107113577782573995_" gradientUnits="userSpaceOnUse" x1="-3018.1843" y1="295.5226" x2="-4363.7676" y2="3689.8359" gradientTransform="matrix(-1 0.0219 0 1 -2524.9526 -26.6952)">
					<stop  offset="0" style="stop-color:#A737D5"/>
					<stop  offset="1" style="stop-color:#EF497A"/>
				</linearGradient>
				<path style="fill:url(#SVGID_00000085220636598061030260000003107113577782573995_);" d="M644.805,2568.563
					c0,72.841,364.504,130.359,806.87,128.501c434.533-1.825,781.185-60.451,781.185-130.972s-346.652-128.068-781.185-128.54
					C1009.309,2437.071,644.805,2495.723,644.805,2568.563z"/>
				
					<linearGradient id="SVGID_00000180366906598509038040000001286421535391118519_" gradientUnits="userSpaceOnUse" x1="-3961.9978" y1="2783.0083" x2="-3967.4705" y2="2503.8965" gradientTransform="matrix(-1 0.0219 0 1 -2524.9526 -26.6952)">
					<stop  offset="0" style="stop-color:#FF9085"/>
					<stop  offset="1" style="stop-color:#FB6FBB"/>
				</linearGradient>
				<path style="fill:url(#SVGID_00000180366906598509038040000001286421535391118519_);" d="M650.958,2559.7
					c0,72.293,361.72,129.5,800.816,127.802c431.438-1.669,775.703-59.769,775.703-129.796
					c0-70.027-344.265-127.256-775.703-127.833C1012.678,2429.284,650.958,2487.405,650.958,2559.7z"/>
				
					<linearGradient id="SVGID_00000039099457555635535040000012682421295194060936_" gradientUnits="userSpaceOnUse" x1="-3470.8367" y1="812.3622" x2="-4265.0356" y2="3726.1123" gradientTransform="matrix(-1 0 0 1 -2524.9526 0)">
					<stop  offset="0" style="stop-color:#CE1567"/>
					<stop  offset="1" style="stop-color:#7A1DBC"/>
				</linearGradient>
				<polygon style="fill:url(#SVGID_00000039099457555635535040000012682421295194060936_);" points="644.805,2676.104 
					644.805,2568.129 2232.86,2565.671 2232.86,2682.851 				"/>
				
					<linearGradient id="SVGID_00000052824214260119613440000013776493630201141947_" gradientUnits="userSpaceOnUse" x1="-3018.1843" y1="295.5226" x2="-4363.7676" y2="3689.8359" gradientTransform="matrix(-1 0.0219 0 1 -2524.9526 -26.6952)">
					<stop  offset="0" style="stop-color:#A737D5"/>
					<stop  offset="1" style="stop-color:#EF497A"/>
				</linearGradient>
				<path style="fill:url(#SVGID_00000052824214260119613440000013776493630201141947_);" d="M644.805,2568.563
					c0,72.841,364.504,130.359,806.87,128.501c434.533-1.825,781.185-60.451,781.185-130.972s-346.652-128.068-781.185-128.54
					C1009.309,2437.071,644.805,2495.723,644.805,2568.563z"/>
			</g>
			<g>
				
					<linearGradient id="SVGID_00000066481474507020786440000004591280099988627091_" gradientUnits="userSpaceOnUse" x1="-3527.0657" y1="797.0369" x2="-4321.2656" y2="3710.7896" gradientTransform="matrix(-1 0 0 1 -2524.9526 0)">
					<stop  offset="0" style="stop-color:#CE1567"/>
					<stop  offset="1" style="stop-color:#7A1DBC"/>
				</linearGradient>
				<path style="fill:url(#SVGID_00000066481474507020786440000004591280099988627091_);" d="M2232.86,2343.582v117.18l-0.17,0.007
					c-7.184,70.725-302.995,194.46-732.644,192.251c-680.845-3.5-845.077-126.773-855.004-199.006h-0.236V2346.04L2232.86,2343.582z
					"/>
				
					<linearGradient id="SVGID_00000162345562486924964790000004786801467870877607_" gradientUnits="userSpaceOnUse" x1="-3094.2686" y1="265.3603" x2="-4439.8516" y2="3659.6736" gradientTransform="matrix(-1 0.0219 0 1 -2524.9526 -26.6952)">
					<stop  offset="0" style="stop-color:#A737D5"/>
					<stop  offset="1" style="stop-color:#EF497A"/>
				</linearGradient>
				<path style="fill:url(#SVGID_00000162345562486924964790000004786801467870877607_);" d="M644.805,2346.475
					c0,72.841,364.504,130.359,806.87,128.5c434.533-1.825,781.185-60.451,781.185-130.972s-346.652-128.068-781.185-128.54
					C1009.309,2214.981,644.805,2273.634,644.805,2346.475z"/>
				
					<linearGradient id="SVGID_00000097488131923559195440000009941588871070631559_" gradientUnits="userSpaceOnUse" x1="-3961.9978" y1="2560.9194" x2="-3967.4705" y2="2281.8074" gradientTransform="matrix(-1 0.0219 0 1 -2524.9526 -26.6952)">
					<stop  offset="0" style="stop-color:#FF9085"/>
					<stop  offset="1" style="stop-color:#FB6FBB"/>
				</linearGradient>
				<path style="fill:url(#SVGID_00000097488131923559195440000009941588871070631559_);" d="M650.958,2337.611
					c0,72.293,361.72,129.5,800.816,127.802c431.438-1.669,775.703-59.769,775.703-129.796
					c0-70.027-344.265-127.256-775.703-127.833C1012.678,2207.195,650.958,2265.316,650.958,2337.611z"/>
				
					<linearGradient id="SVGID_00000055701938634577910640000013404551081039800504_" gradientUnits="userSpaceOnUse" x1="-3527.1843" y1="797.0009" x2="-4321.3833" y2="3710.751" gradientTransform="matrix(-1 0 0 1 -2524.9526 0)">
					<stop  offset="0" style="stop-color:#CE1567"/>
					<stop  offset="1" style="stop-color:#7A1DBC"/>
				</linearGradient>
				<polygon style="fill:url(#SVGID_00000055701938634577910640000013404551081039800504_);" points="644.805,2454.015 
					644.805,2346.04 2232.86,2343.582 2232.86,2460.762 				"/>
				
					<linearGradient id="SVGID_00000092454192760819706460000009552043146666411447_" gradientUnits="userSpaceOnUse" x1="-3094.2686" y1="265.3603" x2="-4439.8516" y2="3659.6736" gradientTransform="matrix(-1 0.0219 0 1 -2524.9526 -26.6952)">
					<stop  offset="0" style="stop-color:#A737D5"/>
					<stop  offset="1" style="stop-color:#EF497A"/>
				</linearGradient>
				<path style="fill:url(#SVGID_00000092454192760819706460000009552043146666411447_);" d="M644.805,2346.475
					c0,72.841,364.504,130.359,806.87,128.5c434.533-1.825,781.185-60.451,781.185-130.972s-346.652-128.068-781.185-128.54
					C1009.309,2214.981,644.805,2273.634,644.805,2346.475z"/>
			</g>
			<g>
				
					<linearGradient id="SVGID_00000103255888812599980750000011131573789088598165_" gradientUnits="userSpaceOnUse" x1="-3583.5527" y1="781.6414" x2="-4377.7529" y2="3695.3945" gradientTransform="matrix(-1 0 0 1 -2524.9526 0)">
					<stop  offset="0" style="stop-color:#CE1567"/>
					<stop  offset="1" style="stop-color:#7A1DBC"/>
				</linearGradient>
				<path style="fill:url(#SVGID_00000103255888812599980750000011131573789088598165_);" d="M2232.86,2120.948v117.179l-0.17,0.008
					c-7.184,70.725-302.995,194.46-732.644,192.251c-680.845-3.5-845.077-126.774-855.004-199.006h-0.236v-107.974L2232.86,2120.948
					z"/>
				
					<linearGradient id="SVGID_00000111888616060752689460000009706982742148061580_" gradientUnits="userSpaceOnUse" x1="-3170.5405" y1="235.1256" x2="-4516.123" y2="3629.4375" gradientTransform="matrix(-1 0.0219 0 1 -2524.9526 -26.6952)">
					<stop  offset="0" style="stop-color:#A737D5"/>
					<stop  offset="1" style="stop-color:#EF497A"/>
				</linearGradient>
				<path style="fill:url(#SVGID_00000111888616060752689460000009706982742148061580_);" d="M644.805,2123.84
					c0,72.841,364.504,130.358,806.87,128.5c434.533-1.825,781.185-60.45,781.185-130.972s-346.652-128.067-781.185-128.54
					C1009.309,1992.346,644.805,2050.999,644.805,2123.84z"/>
				
					<linearGradient id="SVGID_00000017499755777424933690000000670306913003370151_" gradientUnits="userSpaceOnUse" x1="-3961.9978" y1="2338.2839" x2="-3967.4705" y2="2059.1721" gradientTransform="matrix(-1 0.0219 0 1 -2524.9526 -26.6952)">
					<stop  offset="0" style="stop-color:#FF9085"/>
					<stop  offset="1" style="stop-color:#FB6FBB"/>
				</linearGradient>
				<path style="fill:url(#SVGID_00000017499755777424933690000000670306913003370151_);" d="M650.958,2114.976
					c0,72.293,361.72,129.5,800.816,127.802c431.438-1.669,775.703-59.768,775.703-129.796
					c0-70.027-344.265-127.256-775.703-127.833C1012.678,1984.56,650.958,2042.682,650.958,2114.976z"/>
				
					<linearGradient id="SVGID_00000029019522163336947560000012299448245332486319_" gradientUnits="userSpaceOnUse" x1="-3583.6721" y1="781.608" x2="-4377.8711" y2="3695.3582" gradientTransform="matrix(-1 0 0 1 -2524.9526 0)">
					<stop  offset="0" style="stop-color:#CE1567"/>
					<stop  offset="1" style="stop-color:#7A1DBC"/>
				</linearGradient>
				<polygon style="fill:url(#SVGID_00000029019522163336947560000012299448245332486319_);" points="644.805,2231.379 
					644.805,2123.405 2232.86,2120.948 2232.86,2238.127 				"/>
				
					<linearGradient id="SVGID_00000030457881792802507880000004357161497682813861_" gradientUnits="userSpaceOnUse" x1="-3170.5405" y1="235.1256" x2="-4516.123" y2="3629.4375" gradientTransform="matrix(-1 0.0219 0 1 -2524.9526 -26.6952)">
					<stop  offset="0" style="stop-color:#A737D5"/>
					<stop  offset="1" style="stop-color:#EF497A"/>
				</linearGradient>
				<path style="fill:url(#SVGID_00000030457881792802507880000004357161497682813861_);" d="M644.805,2123.84
					c0,72.841,364.504,130.358,806.87,128.5c434.533-1.825,781.185-60.45,781.185-130.972s-346.652-128.067-781.185-128.54
					C1009.309,1992.346,644.805,2050.999,644.805,2123.84z"/>
			</g>
			<g>
				
					<linearGradient id="SVGID_00000043446819982434170110000000073888946322600119_" gradientUnits="userSpaceOnUse" x1="-3640.0388" y1="766.2415" x2="-4434.2383" y2="3679.9922" gradientTransform="matrix(-1 0 0 1 -2524.9526 0)">
					<stop  offset="0" style="stop-color:#CE1567"/>
					<stop  offset="1" style="stop-color:#7A1DBC"/>
				</linearGradient>
				<path style="fill:url(#SVGID_00000043446819982434170110000000073888946322600119_);" d="M2232.86,1898.312v117.179l-0.17,0.007
					c-7.184,70.725-302.995,194.46-732.644,192.251c-680.845-3.501-845.077-126.774-855.004-199.006h-0.236V1900.77
					L2232.86,1898.312z"/>
				
					<linearGradient id="SVGID_00000094600947771933603300000007568083663890255502_" gradientUnits="userSpaceOnUse" x1="-3246.8125" y1="204.8907" x2="-4592.397" y2="3599.2078" gradientTransform="matrix(-1 0.0219 0 1 -2524.9526 -26.6952)">
					<stop  offset="0" style="stop-color:#A737D5"/>
					<stop  offset="1" style="stop-color:#EF497A"/>
				</linearGradient>
				<path style="fill:url(#SVGID_00000094600947771933603300000007568083663890255502_);" d="M644.805,1901.204
					c0,72.84,364.504,130.358,806.87,128.5c434.533-1.825,781.185-60.45,781.185-130.972c0-70.522-346.652-128.068-781.185-128.54
					C1009.309,1769.711,644.805,1828.364,644.805,1901.204z"/>
				
					<linearGradient id="SVGID_00000011711395712421416590000004129633660035877769_" gradientUnits="userSpaceOnUse" x1="-3961.9978" y1="2115.6487" x2="-3967.4705" y2="1836.5366" gradientTransform="matrix(-1 0.0219 0 1 -2524.9526 -26.6952)">
					<stop  offset="0" style="stop-color:#FF9085"/>
					<stop  offset="1" style="stop-color:#FB6FBB"/>
				</linearGradient>
				<path style="fill:url(#SVGID_00000011711395712421416590000004129633660035877769_);" d="M650.958,1892.34
					c0,72.294,361.72,129.501,800.816,127.802c431.438-1.669,775.703-59.768,775.703-129.795
					c0-70.027-344.265-127.256-775.703-127.834C1012.678,1761.925,650.958,1820.046,650.958,1892.34z"/>
				
					<linearGradient id="SVGID_00000021839629877232779790000004889372958648404107_" gradientUnits="userSpaceOnUse" x1="-3640.1589" y1="766.2112" x2="-4434.3589" y2="3679.9639" gradientTransform="matrix(-1 0 0 1 -2524.9526 0)">
					<stop  offset="0" style="stop-color:#CE1567"/>
					<stop  offset="1" style="stop-color:#7A1DBC"/>
				</linearGradient>
				<polygon style="fill:url(#SVGID_00000021839629877232779790000004889372958648404107_);" points="644.805,2008.744 
					644.805,1900.77 2232.86,1898.312 2232.86,2015.491 				"/>
				
					<linearGradient id="SVGID_00000132076269245826363990000008436286326579775361_" gradientUnits="userSpaceOnUse" x1="-3246.8125" y1="204.8907" x2="-4592.397" y2="3599.2078" gradientTransform="matrix(-1 0.0219 0 1 -2524.9526 -26.6952)">
					<stop  offset="0" style="stop-color:#A737D5"/>
					<stop  offset="1" style="stop-color:#EF497A"/>
				</linearGradient>
				<path style="fill:url(#SVGID_00000132076269245826363990000008436286326579775361_);" d="M644.805,1901.204
					c0,72.84,364.504,130.358,806.87,128.5c434.533-1.825,781.185-60.45,781.185-130.972c0-70.522-346.652-128.068-781.185-128.54
					C1009.309,1769.711,644.805,1828.364,644.805,1901.204z"/>
			</g>
			<g>
				
					<linearGradient id="SVGID_00000096022649761456902380000016585379407409186474_" gradientUnits="userSpaceOnUse" x1="-3696.5259" y1="750.8453" x2="-4490.7256" y2="3664.5981" gradientTransform="matrix(-1 0 0 1 -2524.9526 0)">
					<stop  offset="0" style="stop-color:#CE1567"/>
					<stop  offset="1" style="stop-color:#7A1DBC"/>
				</linearGradient>
				<path style="fill:url(#SVGID_00000096022649761456902380000016585379407409186474_);" d="M2232.86,1675.677v117.179l-0.17,0.008
					c-7.184,70.725-302.995,194.46-732.644,192.251c-680.845-3.501-845.077-126.774-855.004-199.006h-0.236v-107.974
					L2232.86,1675.677z"/>
				
					<linearGradient id="SVGID_00000177474137951698923690000009847936477949717685_" gradientUnits="userSpaceOnUse" x1="-3323.0837" y1="174.6546" x2="-4668.666" y2="3568.9668" gradientTransform="matrix(-1 0.0219 0 1 -2524.9526 -26.6952)">
					<stop  offset="0" style="stop-color:#A737D5"/>
					<stop  offset="1" style="stop-color:#EF497A"/>
				</linearGradient>
				<path style="fill:url(#SVGID_00000177474137951698923690000009847936477949717685_);" d="M644.805,1678.569
					c0,72.841,364.504,130.358,806.87,128.5c434.533-1.825,781.185-60.45,781.185-130.972c0-70.522-346.652-128.068-781.185-128.54
					C1009.309,1547.076,644.805,1605.729,644.805,1678.569z"/>
				
					<linearGradient id="SVGID_00000046322449972960875700000012382750188338869154_" gradientUnits="userSpaceOnUse" x1="-3961.9978" y1="1893.0138" x2="-3967.4705" y2="1613.9017" gradientTransform="matrix(-1 0.0219 0 1 -2524.9526 -26.6952)">
					<stop  offset="0" style="stop-color:#FF9085"/>
					<stop  offset="1" style="stop-color:#FB6FBB"/>
				</linearGradient>
				<path style="fill:url(#SVGID_00000046322449972960875700000012382750188338869154_);" d="M650.958,1669.705
					c0,72.294,361.72,129.501,800.816,127.803c431.438-1.669,775.703-59.769,775.703-129.796
					c0-70.026-344.265-127.256-775.703-127.833C1012.678,1539.29,650.958,1597.411,650.958,1669.705z"/>
				
					<linearGradient id="SVGID_00000091720315865824856130000009302363175360228021_" gradientUnits="userSpaceOnUse" x1="-3696.6455" y1="750.813" x2="-4490.8452" y2="3664.5657" gradientTransform="matrix(-1 0 0 1 -2524.9526 0)">
					<stop  offset="0" style="stop-color:#CE1567"/>
					<stop  offset="1" style="stop-color:#7A1DBC"/>
				</linearGradient>
				<polygon style="fill:url(#SVGID_00000091720315865824856130000009302363175360228021_);" points="644.805,1786.109 
					644.805,1678.135 2232.86,1675.677 2232.86,1792.856 				"/>
				
					<linearGradient id="SVGID_00000058569127921414527160000000348648346042320031_" gradientUnits="userSpaceOnUse" x1="-3323.0837" y1="174.6546" x2="-4668.666" y2="3568.9668" gradientTransform="matrix(-1 0.0219 0 1 -2524.9526 -26.6952)">
					<stop  offset="0" style="stop-color:#A737D5"/>
					<stop  offset="1" style="stop-color:#EF497A"/>
				</linearGradient>
				<path style="fill:url(#SVGID_00000058569127921414527160000000348648346042320031_);" d="M644.805,1678.569
					c0,72.841,364.504,130.358,806.87,128.5c434.533-1.825,781.185-60.45,781.185-130.972c0-70.522-346.652-128.068-781.185-128.54
					C1009.309,1547.076,644.805,1605.729,644.805,1678.569z"/>
			</g>
			<g>
				
					<linearGradient id="SVGID_00000125580506947481692580000012361601928391022252_" gradientUnits="userSpaceOnUse" x1="-3753.0129" y1="735.4493" x2="-4547.2129" y2="3649.2021" gradientTransform="matrix(-1 0 0 1 -2524.9526 0)">
					<stop  offset="0" style="stop-color:#CE1567"/>
					<stop  offset="1" style="stop-color:#7A1DBC"/>
				</linearGradient>
				<path style="fill:url(#SVGID_00000125580506947481692580000012361601928391022252_);" d="M2232.86,1453.041v117.18l-0.17,0.007
					c-7.184,70.725-302.995,194.46-732.644,192.251c-680.845-3.5-845.077-126.773-855.004-199.006h-0.236v-107.974L2232.86,1453.041
					z"/>
				
					<linearGradient id="SVGID_00000127750582839996807630000004435422443313590690_" gradientUnits="userSpaceOnUse" x1="-3399.3552" y1="144.4189" x2="-4744.938" y2="3538.7312" gradientTransform="matrix(-1 0.0219 0 1 -2524.9526 -26.6952)">
					<stop  offset="0" style="stop-color:#A737D5"/>
					<stop  offset="1" style="stop-color:#EF497A"/>
				</linearGradient>
				<path style="fill:url(#SVGID_00000127750582839996807630000004435422443313590690_);" d="M644.805,1455.933
					c0,72.841,364.504,130.359,806.87,128.5c434.533-1.825,781.185-60.451,781.185-130.972c0-70.522-346.652-128.068-781.185-128.54
					C1009.309,1324.441,644.805,1383.093,644.805,1455.933z"/>
				
					<linearGradient id="SVGID_00000057831891124789301790000013054669509349235840_" gradientUnits="userSpaceOnUse" x1="-3961.9978" y1="1670.3784" x2="-3967.4705" y2="1391.2662" gradientTransform="matrix(-1 0.0219 0 1 -2524.9526 -26.6952)">
					<stop  offset="0" style="stop-color:#FF9085"/>
					<stop  offset="1" style="stop-color:#FB6FBB"/>
				</linearGradient>
				<path style="fill:url(#SVGID_00000057831891124789301790000013054669509349235840_);" d="M650.958,1447.07
					c0,72.293,361.72,129.5,800.816,127.802c431.438-1.669,775.703-59.769,775.703-129.796
					c0-70.027-344.265-127.256-775.703-127.833C1012.678,1316.654,650.958,1374.775,650.958,1447.07z"/>
				
					<linearGradient id="SVGID_00000147900333321153406220000007676757538291842731_" gradientUnits="userSpaceOnUse" x1="-3753.1318" y1="735.4143" x2="-4547.3311" y2="3649.165" gradientTransform="matrix(-1 0 0 1 -2524.9526 0)">
					<stop  offset="0" style="stop-color:#CE1567"/>
					<stop  offset="1" style="stop-color:#7A1DBC"/>
				</linearGradient>
				<polygon style="fill:url(#SVGID_00000147900333321153406220000007676757538291842731_);" points="644.805,1563.474 
					644.805,1455.499 2232.86,1453.041 2232.86,1570.221 				"/>
				
					<linearGradient id="SVGID_00000148659087306888355740000015417689523077236640_" gradientUnits="userSpaceOnUse" x1="-3399.3552" y1="144.4189" x2="-4744.938" y2="3538.7312" gradientTransform="matrix(-1 0.0219 0 1 -2524.9526 -26.6952)">
					<stop  offset="0" style="stop-color:#A737D5"/>
					<stop  offset="1" style="stop-color:#EF497A"/>
				</linearGradient>
				<path style="fill:url(#SVGID_00000148659087306888355740000015417689523077236640_);" d="M644.805,1455.933
					c0,72.841,364.504,130.359,806.87,128.5c434.533-1.825,781.185-60.451,781.185-130.972c0-70.522-346.652-128.068-781.185-128.54
					C1009.309,1324.441,644.805,1383.093,644.805,1455.933z"/>
			</g>
			<g>
				
					<linearGradient id="SVGID_00000108295173841982910080000013118716262468050077_" gradientUnits="userSpaceOnUse" x1="-3809.5" y1="720.0529" x2="-4603.6997" y2="3633.8057" gradientTransform="matrix(-1 0 0 1 -2524.9526 0)">
					<stop  offset="0" style="stop-color:#CE1567"/>
					<stop  offset="1" style="stop-color:#7A1DBC"/>
				</linearGradient>
				<path style="fill:url(#SVGID_00000108295173841982910080000013118716262468050077_);" d="M2232.86,1230.406v117.18l-0.17,0.007
					c-7.184,70.725-302.995,194.46-732.644,192.251c-680.845-3.501-845.077-126.774-855.004-199.006h-0.236v-107.974
					L2232.86,1230.406z"/>
				
					<linearGradient id="SVGID_00000058560259832322692170000013585648635311614911_" gradientUnits="userSpaceOnUse" x1="-3475.627" y1="114.1837" x2="-4821.2095" y2="3508.4956" gradientTransform="matrix(-1 0.0219 0 1 -2524.9526 -26.6952)">
					<stop  offset="0" style="stop-color:#A737D5"/>
					<stop  offset="1" style="stop-color:#EF497A"/>
				</linearGradient>
				<path style="fill:url(#SVGID_00000058560259832322692170000013585648635311614911_);" d="M644.805,1233.299
					c0,72.84,364.504,130.358,806.87,128.5c434.533-1.825,781.185-60.45,781.185-130.972c0-70.522-346.652-128.068-781.185-128.54
					C1009.309,1101.805,644.805,1160.458,644.805,1233.299z"/>
				
					<linearGradient id="SVGID_00000079456854177894613210000007026484204676836234_" gradientUnits="userSpaceOnUse" x1="-3961.9978" y1="1447.7429" x2="-3967.4705" y2="1168.6309" gradientTransform="matrix(-1 0.0219 0 1 -2524.9526 -26.6952)">
					<stop  offset="0" style="stop-color:#FF9085"/>
					<stop  offset="1" style="stop-color:#FB6FBB"/>
				</linearGradient>
				<path style="fill:url(#SVGID_00000079456854177894613210000007026484204676836234_);" d="M650.958,1224.434
					c0,72.294,361.72,129.501,800.816,127.802c431.438-1.669,775.703-59.769,775.703-129.796
					c0-70.027-344.265-127.256-775.703-127.833C1012.678,1094.019,650.958,1152.141,650.958,1224.434z"/>
				
					<linearGradient id="SVGID_00000168077764682694235330000002702546041314753419_" gradientUnits="userSpaceOnUse" x1="-3809.6194" y1="720.02" x2="-4603.8188" y2="3633.77" gradientTransform="matrix(-1 0 0 1 -2524.9526 0)">
					<stop  offset="0" style="stop-color:#CE1567"/>
					<stop  offset="1" style="stop-color:#7A1DBC"/>
				</linearGradient>
				<polygon style="fill:url(#SVGID_00000168077764682694235330000002702546041314753419_);" points="644.805,1340.838 
					644.805,1232.864 2232.86,1230.406 2232.86,1347.586 				"/>
				
					<linearGradient id="SVGID_00000009554572122175035710000017302120860902289316_" gradientUnits="userSpaceOnUse" x1="-3475.627" y1="114.1837" x2="-4821.2095" y2="3508.4956" gradientTransform="matrix(-1 0.0219 0 1 -2524.9526 -26.6952)">
					<stop  offset="0" style="stop-color:#A737D5"/>
					<stop  offset="1" style="stop-color:#EF497A"/>
				</linearGradient>
				<path style="fill:url(#SVGID_00000009554572122175035710000017302120860902289316_);" d="M644.805,1233.299
					c0,72.84,364.504,130.358,806.87,128.5c434.533-1.825,781.185-60.45,781.185-130.972c0-70.522-346.652-128.068-781.185-128.54
					C1009.309,1101.805,644.805,1160.458,644.805,1233.299z"/>
			</g>
		</g>
		<g>
			
				<linearGradient id="SVGID_00000140709542513120095460000004202005413269785000_" gradientUnits="userSpaceOnUse" x1="459.3367" y1="2393.5732" x2="3152.8298" y2="2393.5732">
				<stop  offset="0" style="stop-color:#5AB6FF"/>
				<stop  offset="1" style="stop-color:#2F68E3"/>
			</linearGradient>
			<path style="fill:url(#SVGID_00000140709542513120095460000004202005413269785000_);" d="M2615.76,2289.443
				c-9.223-0.216-16.644-7.664-16.812-16.888c-1.721-94.561-31.217-564.091-444.713-662.21
				c-460.353-109.236-671.023,358.919-671.023,358.919s-569.588-218.472-678.824,366.722
				c-357.144,85.714-449.934,552.13-217.641,780.039c36.909,36.212,86.379,56.679,138.084,57.145l2236.65,20.148
				c65.646,0.591,123.854-42.374,142.503-105.318C3173.85,2852.189,3265.426,2304.657,2615.76,2289.443z"/>
			
				<linearGradient id="SVGID_00000048484836096211475130000013756271489853113729_" gradientUnits="userSpaceOnUse" x1="3017.0254" y1="2353.8096" x2="-1053.6311" y2="2654.0327">
				<stop  offset="0" style="stop-color:#5AB6FF"/>
				<stop  offset="1" style="stop-color:#2F68E3"/>
			</linearGradient>
			<path style="fill:url(#SVGID_00000048484836096211475130000013756271489853113729_);" d="M2564.642,2299.475
				c-9.206-0.22-16.617-7.646-16.803-16.853c-1.832-90.697-31.039-526.073-420.487-617.338
				c-435.296-102.009-634.499,335.173-634.499,335.173s-538.586-204.018-641.876,342.46
				c-334.465,79.276-423.737,507.278-212.031,722.248c37.115,37.686,87.658,59.113,140.549,59.583L2885,3143.48
				c65.793,0.585,124.091-42.576,142.604-105.713C3093.266,2813.828,3171.189,2313.991,2564.642,2299.475z"/>
		</g>
		<g>
			
				<linearGradient id="SVGID_00000094605301396970687810000005670457026248042174_" gradientUnits="userSpaceOnUse" x1="9594.7676" y1="1224.4534" x2="9174.5537" y2="1464.3057" gradientTransform="matrix(1 0 0 1 -7868.0332 0)">
				<stop  offset="0" style="stop-color:#F9B776"/>
				<stop  offset="1" style="stop-color:#F47960"/>
			</linearGradient>
			<path style="fill:url(#SVGID_00000094605301396970687810000005670457026248042174_);" d="M1662.848,1615.469
				c-0.495-0.191-267.033-466.962-303.05-510.889c-6.06-7.387-15.437-11.15-24.926-10.019l-74.394,8.865l-87.399,189.075
				l145.603-84.797c-14.408,99.643,172.64,247.726,236.79,301.759c6.51,5.484,7.045,15.305,1.165,21.46l-25.61,26.809
				c42.045,42.618,90.562,69.984,145.322,82.641L1662.848,1615.469z"/>
			
				<linearGradient id="SVGID_00000161627279014544218320000007277880174148518815_" gradientUnits="userSpaceOnUse" x1="87.9976" y1="-733.2849" x2="55.7392" y2="-238.6562" gradientTransform="matrix(-0.8974 -0.4412 -0.4412 0.8974 1427.2458 2161.1482)">
				<stop  offset="0" style="stop-color:#2B3582"/>
				<stop  offset="1" style="stop-color:#150E42"/>
			</linearGradient>
			<path style="fill:url(#SVGID_00000161627279014544218320000007277880174148518815_);" d="M1545.839,1543.264
				c0,0-16.345,5.28-21.879,19.838c-2.647,6.965,0.207,14.854,6.264,19.194c26.914,19.282,115.692,81.536,156.661,93.728
				c3.358,1,6.553-2.039,5.797-5.46c-2.102-9.517-8.902-28.523-30.812-56.345l1.966,3.976c2.487,5.032-2.991,10.271-7.88,7.511
				C1628.555,1610.236,1572.742,1576.38,1545.839,1543.264z"/>
			
				<linearGradient id="SVGID_00000042726352823374665160000011259972339233243800_" gradientUnits="userSpaceOnUse" x1="9554.1182" y1="1284.27" x2="10991.8877" y2="384.204" gradientTransform="matrix(1 0 0 1 -7868.0332 0)">
				<stop  offset="0" style="stop-color:#F9B776"/>
				<stop  offset="1" style="stop-color:#F47960"/>
			</linearGradient>
			<path style="fill:url(#SVGID_00000042726352823374665160000011259972339233243800_);" d="M1559.03,1730.03
				c-0.447-0.286-40.436-96.635-40.883-96.92c-36.666-223.235-126.122-414.42-152.505-464.727
				c-4.439-8.461-12.861-14.044-22.383-14.857l-74.65-6.374l-123.855,167.475l159.751-53.576
				c-34.275,94.666,118.934,277.538,170.821,343.436c5.265,6.688,3.801,16.414-3.202,21.252l-30.506,21.072
				c32.55,50.245,74.525,86.864,125.59,110.34L1559.03,1730.03z"/>
			
				<linearGradient id="SVGID_00000101063451974262795500000004568337483908359811_" gradientUnits="userSpaceOnUse" x1="837.4503" y1="-1384.8844" x2="805.1943" y2="-890.2925" gradientTransform="matrix(-0.7895 -0.6137 -0.6137 0.7895 1409.6569 3191.1018)">
				<stop  offset="0" style="stop-color:#2B3582"/>
				<stop  offset="1" style="stop-color:#150E42"/>
			</linearGradient>
			<path style="fill:url(#SVGID_00000101063451974262795500000004568337483908359811_);" d="M1459.054,1635.64
				c0,0-17.075,1.863-25.44,14.999c-4.003,6.286-2.804,14.589,2.249,20.065c22.455,24.33,96.797,103.262,134.451,123.493
				c3.087,1.658,6.83-0.671,6.783-4.174c-0.133-9.745-2.946-29.735-18.771-61.415l1.12,4.292c1.417,5.431-5.008,9.453-9.236,5.761
				C1526.505,1717.966,1478.699,1673.515,1459.054,1635.64z"/>
			<g>
				
					<linearGradient id="SVGID_00000136378211868256306150000010848456616458213820_" gradientUnits="userSpaceOnUse" x1="1274.7273" y1="962.6055" x2="757.1423" y2="1898.2396" gradientTransform="matrix(1 0 0 1 -36.3333 0)">
					<stop  offset="0" style="stop-color:#2B3582"/>
					<stop  offset="1" style="stop-color:#150E42"/>
				</linearGradient>
				<path style="fill:url(#SVGID_00000136378211868256306150000010848456616458213820_);" d="M919.183,1111.881
					c0,0-67.531,100.444-73.072,146.261c-5.541,45.818,18.673,61.663,89.356,67.505c210.337,17.388,314.024-45.65,314.024-45.65
					c14.389-91.741,24.627-115.081,144.796-164.962c0,0-151.994,12.066-182.583,0.196
					C1181.115,1103.36,919.183,1111.881,919.183,1111.881z"/>
			</g>
			<g>
				
					<linearGradient id="SVGID_00000070835185044875209280000016884771276821766329_" gradientUnits="userSpaceOnUse" x1="9075.7969" y1="803.8691" x2="8085.1899" y2="1759.4116" gradientTransform="matrix(1 0 0 1 -7868.0332 0)">
					<stop  offset="0" style="stop-color:#FDF53F"/>
					<stop  offset="1" style="stop-color:#D93C65"/>
				</linearGradient>
				<path style="fill:url(#SVGID_00000070835185044875209280000016884771276821766329_);" d="M1101.813,1098.584
					c0,0,78.64-74.881,117.35-124.478c20.925-26.809,27.496-62.103,17.818-94.706c-17.673-59.542-49.081-121.21-51.945-130.808
					c-4.39-14.712-92.566-14.099-92.566-14.099s-173.512,112.611-241.685,303.366l76.563,23.836c0,0,45.304-76.006,90.067-124.329
					c0,0-77.456,102.322-80.184,144.211L1101.813,1098.584z"/>
				
					<linearGradient id="SVGID_00000080181816137502103540000016522729133837760140_" gradientUnits="userSpaceOnUse" x1="-594.0992" y1="852.6243" x2="-622.6499" y2="669.4248" gradientTransform="matrix(-1 0 0 1 528.4297 0)">
					<stop  offset="0" style="stop-color:#F9B776"/>
					<stop  offset="1" style="stop-color:#F47960"/>
				</linearGradient>
				<path style="fill:url(#SVGID_00000080181816137502103540000016522729133837760140_);" d="M1195.7,666.37
					c-0.921,3.058-23.935,79.354-25.735,80.937c-1.8,1.584-50.472,4.201-73.381-11.456l46.76-103.439L1195.7,666.37z"/>
				
					<linearGradient id="SVGID_00000107574942088289484520000017901659174456146851_" gradientUnits="userSpaceOnUse" x1="1854.5524" y1="-2262.8369" x2="2039.0458" y2="-2137.5208" gradientTransform="matrix(-0.723 -0.6909 -0.6909 0.723 1049.2607 3572.7656)">
					<stop  offset="0" style="stop-color:#F9B776"/>
					<stop  offset="1" style="stop-color:#F47960"/>
				</linearGradient>
				<path style="fill:url(#SVGID_00000107574942088289484520000017901659174456146851_);" d="M1258.995,580.669
					c0,0,16.386,37.847-2.866,95.388c-19.251,57.54-50.712,62.539-70.636,48.315c-19.923-14.225-45.758-39.643-48.97-91.766
					C1133.312,580.481,1236.425,532.799,1258.995,580.669z"/>
				
					<linearGradient id="SVGID_00000145741533157222451380000009266000753837251481_" gradientUnits="userSpaceOnUse" x1="2176.5349" y1="-2498.2588" x2="1867.0854" y2="-2176.3064" gradientTransform="matrix(-0.723 -0.6909 -0.6909 0.723 1049.2607 3572.7656)">
					<stop  offset="0" style="stop-color:#CB236D"/>
					<stop  offset="1" style="stop-color:#4C246D"/>
				</linearGradient>
				<path style="fill:url(#SVGID_00000145741533157222451380000009266000753837251481_);" d="M1175.402,629.214
					c0,0,34.767-77.876,86.91-29.365l4.024,20.045c0,0,49.657-14.146,33.338-59.144c-16.32-44.998-75.662-75.523-128.774-46.357
					c-53.111,29.165-71.163,63.52-68.308,104.482c2.854,40.963,33.555,26.946,33.555,26.946s5.908-30.116,20.332-35.467
					c14.423-5.351,14.114,17.445,14.114,17.445L1175.402,629.214z"/>
				
					<linearGradient id="SVGID_00000085230839472011855330000005668671633153407399_" gradientUnits="userSpaceOnUse" x1="1865.6111" y1="-2279.1143" x2="2050.1028" y2="-2153.7991" gradientTransform="matrix(-0.723 -0.6909 -0.6909 0.723 1049.2607 3572.7656)">
					<stop  offset="0" style="stop-color:#F9B776"/>
					<stop  offset="1" style="stop-color:#F47960"/>
				</linearGradient>
				<path style="fill:url(#SVGID_00000085230839472011855330000005668671633153407399_);" d="M1163.447,630.165
					c0,0,18.106-39.927-7.255-41.371c-25.362-1.443-15.043,38.489-9.989,53.059L1163.447,630.165z"/>
				
					<linearGradient id="SVGID_00000029031261497835943240000000616330995624040859_" gradientUnits="userSpaceOnUse" x1="-462.3152" y1="1086.1993" x2="-43.7181" y2="1086.1993" gradientTransform="matrix(-1 0 0 1 528.4297 0)">
					<stop  offset="0" style="stop-color:#F9B776"/>
					<stop  offset="1" style="stop-color:#F47960"/>
				</linearGradient>
				<path style="fill:url(#SVGID_00000029031261497835943240000000616330995624040859_);" d="M1251.647,1128.134l-59.09-64.29
					l-68.242,18.376c0,0-79.559,12.327-125.095,0c-45.535-12.327-45.535-12.327-45.535-12.327l-102.899-32.035l-16.162,45.674
					c-4.103,11.595,0.02,24.469,10.047,31.595c8.902,6.326,19.338,13.278,25.988,16.188c13.551,5.927,312.161,1.874,312.161,1.874
					L1251.647,1128.134z"/>
				
					<linearGradient id="SVGID_00000182509239678609257230000010612903051668666764_" gradientUnits="userSpaceOnUse" x1="1952.6188" y1="-2150.3459" x2="1614.2336" y2="-1798.2891" gradientTransform="matrix(-0.7808 -0.6248 -0.6248 0.7808 1133.1548 3172.542)">
					<stop  offset="0" style="stop-color:#CB236D"/>
					<stop  offset="1" style="stop-color:#4C246D"/>
				</linearGradient>
				<path style="fill:url(#SVGID_00000182509239678609257230000010612903051668666764_);" d="M1149.049,543.257
					c14.209-1.73,19.925-19.286,10.261-29.845c-31.195-34.086-90.08-71.906-173.972-13.873
					c-94.5,65.373-145.628,94.949-168.843,88.744c-15.244-4.075-28.5,11.004-21.3,25.045c5.324,10.382,16.161,21.225,36.187,31.106
					C985.857,720.657,1065.705,553.403,1149.049,543.257z"/>
			</g>
			<g>
				
					<linearGradient id="SVGID_00000022557533327245558480000017096787102455366542_" gradientUnits="userSpaceOnUse" x1="-495.6304" y1="1113.2494" x2="-714.6108" y2="1173.2661" gradientTransform="matrix(-0.9988 -0.0494 -0.0494 0.9988 569.8987 -55.0328)">
					<stop  offset="0" style="stop-color:#2B3582"/>
					<stop  offset="1" style="stop-color:#150E42"/>
				</linearGradient>
				<path style="fill:url(#SVGID_00000022557533327245558480000017096787102455366542_);" d="M1056.051,1153.578
					c0.208,0.01,0.416,0.016,0.625,0.015l271.787-0.297c6.719-0.006,12.16-5.458,12.153-12.176
					c-0.007-6.722-5.479-12.274-12.179-12.153l-271.788,0.296c-6.718,0.005-12.159,5.458-12.152,12.177
					C1044.504,1147.95,1049.624,1153.26,1056.051,1153.578z"/>
				
					<linearGradient id="SVGID_00000004534092427070812020000017279283292394443406_" gradientUnits="userSpaceOnUse" x1="-777.8895" y1="939.9014" x2="-933.2662" y2="1104.125" gradientTransform="matrix(-1 0 0 1 528.4297 0)">
					<stop  offset="0" style="stop-color:#2B3582"/>
					<stop  offset="1" style="stop-color:#150E42"/>
				</linearGradient>
				<path style="fill:url(#SVGID_00000004534092427070812020000017279283292394443406_);" d="M1572.789,906.812h-226.347
					c-16.697,0-31.896,9.636-39.018,24.738l-104.64,221.883h281.289c10.76,0,20.428-6.575,24.383-16.583l81.143-205.32
					C1594.288,919.668,1585.545,906.812,1572.789,906.812z"/>
				
					<linearGradient id="SVGID_00000113341676820877648110000015318955808409320608_" gradientUnits="userSpaceOnUse" x1="-871.8219" y1="980.7917" x2="-942.3221" y2="1086.957" gradientTransform="matrix(-1 0 0 1 528.4297 0)">
					<stop  offset="0" style="stop-color:#53D8FF"/>
					<stop  offset="1" style="stop-color:#3840F7"/>
				</linearGradient>
				<path style="fill:url(#SVGID_00000113341676820877648110000015318955808409320608_);" d="M1413.325,1020.578
					c-4.905,15.239-1.281,30.039,8.094,33.056c9.375,3.018,20.951-6.89,25.856-22.129c4.905-15.239,1.281-30.039-8.093-33.057
					C1429.807,995.431,1418.23,1005.339,1413.325,1020.578z"/>
			</g>
		</g>
		<g>
			<g style="opacity:0.64;">
				<path style="fill:#FFFFFF;" d="M1182.284,2652.637c-4.256,0-8.177-2.783-9.438-7.07c-1.503-5.12-2.933-10.271-4.29-15.45
					c-1.376-5.259,1.772-10.637,7.031-12.013c5.24-1.361,10.629,1.768,12.013,7.031c1.303,4.986,2.679,9.953,4.129,14.881
					c1.534,5.217-1.453,10.687-6.666,12.217C1184.137,2652.506,1183.203,2652.637,1182.284,2652.637z"/>
				<path style="fill:#FFFFFF;" d="M1167.522,2587.501c-4.748,0-8.926-3.441-9.703-8.277c-1.684-10.437-3.087-21.116-4.171-31.742
					c-0.55-5.409,3.387-10.237,8.792-10.791c5.459-0.523,10.237,3.387,10.791,8.792c1.045,10.249,2.395,20.547,4.017,30.611
					c0.865,5.363-2.783,10.414-8.15,11.279C1168.568,2587.463,1168.041,2587.501,1167.522,2587.501z M1160.718,2505.323
					c-5.401,0-9.803-4.359-9.841-9.768l-0.008-3.256c0-9.476,0.254-19.163,0.75-28.766c0.284-5.424,4.982-9.61,10.341-9.318
					c5.428,0.285,9.599,4.913,9.318,10.341c-0.484,9.261-0.727,18.606-0.727,27.778l0.008,3.075
					c0.038,5.436-4.333,9.876-9.768,9.914H1160.718z M1166.503,2423.077c-0.477,0-0.957-0.035-1.442-0.104
					c-5.378-0.788-9.096-5.789-8.307-11.167c1.538-10.483,3.414-21.09,5.574-31.515c1.103-5.328,6.327-8.746,11.632-7.642
					c5.324,1.103,8.746,6.312,7.642,11.633c-2.083,10.052-3.89,20.274-5.374,30.384
					C1175.51,2419.559,1171.309,2423.077,1166.503,2423.077z M1184.706,2342.683c-0.965,0-1.945-0.143-2.914-0.442
					c-5.193-1.607-8.1-7.119-6.493-12.313c3.137-10.125,6.62-20.317,10.356-30.284c1.907-5.094,7.592-7.666,12.667-5.763
					c5.09,1.907,7.669,7.577,5.763,12.667c-3.602,9.614-6.958,19.436-9.98,29.201
					C1192.798,2339.969,1188.903,2342.683,1184.706,2342.683z M1215.087,2266.045c-1.453,0-2.926-0.323-4.317-1.007
					c-4.882-2.387-6.904-8.28-4.513-13.163c4.678-9.564,9.703-19.11,14.931-28.366c2.672-4.74,8.684-6.408,13.405-3.733
					c4.736,2.672,6.404,8.673,3.733,13.405c-5.036,8.926-9.879,18.129-14.392,27.344
					C1222.225,2264.015,1218.727,2266.045,1215.087,2266.045z M1256.958,2194.969c-1.945,0-3.909-0.573-5.628-1.772
					c-4.455-3.11-5.543-9.246-2.433-13.705c6.093-8.722,12.52-17.376,19.106-25.714c3.364-4.263,9.553-5.001,13.82-1.626
					c4.267,3.368,4.994,9.557,1.626,13.82c-6.347,8.038-12.54,16.38-18.414,24.791
					C1263.12,2193.501,1260.064,2194.969,1256.958,2194.969z M1309.235,2131.175c-2.445,0-4.894-0.907-6.8-2.729
					c-3.929-3.756-4.068-9.988-0.312-13.912c7.323-7.658,14.992-15.223,22.792-22.485c3.979-3.702,10.21-3.479,13.908,0.5
					c3.702,3.979,3.479,10.202-0.5,13.908c-7.519,7-14.915,14.297-21.977,21.678
					C1314.413,2130.156,1311.826,2131.175,1309.235,2131.175z M1370.627,2076.118c-2.956,0-5.874-1.323-7.815-3.848
					c-3.31-4.313-2.495-10.491,1.815-13.801c8.403-6.451,17.134-12.755,25.941-18.737c4.49-3.052,10.618-1.884,13.67,2.614
					c3.052,4.494,1.884,10.617-2.614,13.67c-8.492,5.767-16.907,11.844-25.01,18.068
					C1374.825,2075.453,1372.718,2076.118,1370.627,2076.118z M1439.669,2031.076c-3.479,0-6.847-1.845-8.638-5.113
					c-2.61-4.767-0.865-10.749,3.902-13.359c9.292-5.094,18.875-9.987,28.478-14.547c4.917-2.33,10.783-0.238,13.113,4.671
					c2.33,4.913,0.238,10.779-4.671,13.113c-9.264,4.394-18.502,9.115-27.463,14.024
					C1442.89,2030.688,1441.268,2031.076,1439.669,2031.076z M1945.32,2026.228c-1.538,0-3.098-0.361-4.552-1.127
					c-9.091-4.751-18.433-9.291-27.763-13.493c-4.955-2.229-7.166-8.054-4.932-13.013c2.226-4.959,8.065-7.162,13.012-4.932
					c9.68,4.355,19.371,9.064,28.801,14c4.817,2.518,6.681,8.465,4.16,13.278C1952.29,2024.302,1948.864,2026.228,1945.32,2026.228z
					 M1514.765,1997.15c-4.025,0-7.804-2.491-9.253-6.497c-1.849-5.109,0.792-10.752,5.905-12.601
					c9.964-3.606,20.178-6.966,30.358-9.987c5.209-1.538,10.691,1.422,12.232,6.635c1.545,5.209-1.423,10.687-6.635,12.232
					c-9.81,2.914-19.656,6.151-29.258,9.626C1517.01,1996.958,1515.876,1997.15,1514.765,1997.15z M1869.516,1993.775
					c-1.045,0-2.11-0.169-3.156-0.523c-9.741-3.298-19.675-6.343-29.516-9.042c-5.24-1.442-8.323-6.854-6.885-12.098
					c1.438-5.243,6.87-8.315,12.098-6.885c10.21,2.802,20.509,5.958,30.615,9.38c5.147,1.742,7.908,7.331,6.166,12.478
					C1877.451,1991.188,1873.622,1993.775,1869.516,1993.775z M1594.163,1975.192c-4.613,0-8.734-3.26-9.649-7.961
					c-1.038-5.332,2.445-10.503,7.78-11.541c10.399-2.026,21.028-3.771,31.588-5.186c5.393-0.738,10.341,3.06,11.06,8.446
					c0.723,5.386-3.056,10.337-8.446,11.06c-10.176,1.365-20.416,3.048-30.442,5.001
					C1595.421,1975.135,1594.786,1975.192,1594.163,1975.192z M1789.61,1973.413c-0.561,0-1.126-0.047-1.699-0.146
					c-10.072-1.753-20.351-3.237-30.554-4.41c-5.401-0.619-9.276-5.501-8.653-10.898c0.619-5.397,5.497-9.345,10.898-8.653
					c10.579,1.215,21.239,2.753,31.684,4.571c5.355,0.93,8.942,6.028,8.007,11.383
					C1798.46,1970.041,1794.304,1973.413,1789.61,1973.413z M1676.056,1965.747c-5.263,0-9.626-4.167-9.826-9.472
					c-0.203-5.432,4.033-9.999,9.464-10.202c10.576-0.4,21.313-0.496,32.015-0.269c5.435,0.111,9.749,4.609,9.633,10.041
					c-0.111,5.435-4.598,9.876-10.041,9.633c-10.325-0.207-20.682-0.119-30.869,0.261
					C1676.306,1965.743,1676.183,1965.747,1676.056,1965.747z"/>
				<path style="fill:#FFFFFF;" d="M2002.764,2061.037c-1.942,0-3.898-0.569-5.609-1.76c-4.225-2.937-8.496-5.816-12.809-8.63
					c-4.551-2.971-5.835-9.068-2.864-13.62c2.976-4.551,9.072-5.831,13.62-2.864c4.475,2.922,8.907,5.909,13.286,8.953
					c4.463,3.102,5.566,9.238,2.464,13.697C2008.942,2059.565,2005.878,2061.037,2002.764,2061.037z"/>
			</g>
			<g style="opacity:0.64;">
				<path style="fill:#FFFFFF;" d="M2225.439,2410.099c-4.701,0-8.857-3.375-9.687-8.165c-0.877-5.086-1.822-10.149-2.848-15.181
					c-1.088-5.324,2.348-10.522,7.677-11.605c5.297-1.103,10.521,2.349,11.605,7.677c1.065,5.224,2.049,10.48,2.964,15.758
					c0.923,5.355-2.668,10.449-8.023,11.375C2226.562,2410.052,2225.997,2410.099,2225.439,2410.099z"/>
				<path style="fill:#FFFFFF;" d="M1687.693,3037.781c-0.061,0-0.123,0-0.185,0c-9.353-0.173-18.852-0.588-28.228-1.238
					l-3.214-0.231c-5.42-0.392-9.499-5.105-9.103-10.525c0.392-5.42,5.163-9.549,10.525-9.103l3.148,0.223
					c9.049,0.627,18.21,1.027,27.233,1.192c5.436,0.1,9.76,4.586,9.66,10.022C1697.43,3033.494,1693.044,3037.781,1687.693,3037.781
					z M1737.913,3036.346c-5.097,0-9.41-3.932-9.802-9.099c-0.407-5.421,3.652-10.145,9.072-10.556
					c10.079-0.761,20.24-1.822,30.204-3.152c5.363-0.746,10.333,3.06,11.056,8.45c0.723,5.385-3.06,10.337-8.45,11.056
					c-10.333,1.384-20.874,2.483-31.326,3.275C1738.413,3036.339,1738.163,3036.346,1737.913,3036.346z M1606.884,3030.265
					c-0.546,0-1.096-0.042-1.653-0.139c-10.349-1.749-20.747-3.821-30.907-6.151c-5.297-1.214-8.607-6.493-7.392-11.79
					c1.215-5.297,6.474-8.611,11.79-7.392c9.795,2.245,19.817,4.24,29.792,5.928c5.359,0.907,8.969,5.985,8.062,11.344
					C1615.764,3026.866,1611.597,3030.265,1606.884,3030.265z M1818.119,3024.129c-4.479,0-8.526-3.075-9.58-7.623
					c-1.226-5.297,2.072-10.583,7.365-11.809c9.841-2.28,19.721-4.871,29.362-7.704c5.221-1.538,10.683,1.453,12.217,6.666
					c1.534,5.217-1.453,10.687-6.666,12.217c-10.006,2.941-20.259,5.632-30.469,7.996
					C1819.599,3024.045,1818.853,3024.129,1818.119,3024.129z M1528.109,3010.706c-1.023,0-2.065-0.162-3.091-0.504
					c-9.945-3.291-19.913-6.912-29.623-10.767c-5.051-2.003-7.523-7.723-5.517-12.774c2.003-5.052,7.723-7.52,12.775-5.517
					c9.36,3.713,18.963,7.204,28.547,10.375c5.159,1.707,7.961,7.273,6.251,12.432
					C1536.085,3008.084,1532.237,3010.706,1528.109,3010.706z M1895.549,2999.857c-3.909,0-7.604-2.345-9.141-6.193
					c-2.018-5.048,0.438-10.775,5.485-12.79c9.353-3.737,18.714-7.796,27.825-12.059c4.928-2.311,10.783-0.181,13.086,4.736
					c2.306,4.925,0.185,10.783-4.736,13.086c-9.453,4.428-19.167,8.638-28.87,12.513
					C1897.998,2999.631,1896.764,2999.857,1895.549,2999.857z M1453.223,2979.414c-1.507,0-3.033-0.35-4.467-1.08
					c-9.314-4.755-18.61-9.849-27.64-15.138c-4.686-2.749-6.262-8.78-3.514-13.47c2.752-4.686,8.78-6.258,13.47-3.513
					c8.699,5.101,17.66,10.01,26.633,14.593c4.84,2.472,6.762,8.4,4.29,13.24
					C1460.254,2977.453,1456.802,2979.414,1453.223,2979.414z M1968.37,2964.152c-3.371,0-6.654-1.734-8.488-4.851
					c-2.756-4.682-1.196-10.714,3.49-13.47c8.703-5.125,17.357-10.552,25.714-16.134c4.517-3.018,10.629-1.807,13.651,2.718
					c3.018,4.521,1.803,10.633-2.718,13.651c-8.669,5.79-17.641,11.417-26.667,16.726
					C1971.787,2963.714,1970.069,2964.152,1968.37,2964.152z M2035.001,2917.887c-2.864,0-5.701-1.242-7.646-3.633
					c-3.425-4.221-2.787-10.418,1.43-13.847c7.823-6.354,15.565-13.02,23.015-19.817c4.017-3.663,10.241-3.379,13.9,0.638
					c3.664,4.013,3.379,10.237-0.638,13.9c-7.727,7.05-15.753,13.962-23.861,20.555
					C2039.376,2917.165,2037.181,2917.887,2035.001,2917.887z M2093.937,2862.131c-2.36,0-4.728-0.846-6.616-2.56
					c-4.021-3.652-4.317-9.876-0.665-13.901c6.815-7.496,13.474-15.254,19.79-23.062c3.414-4.225,9.615-4.874,13.843-1.457
					c4.225,3.422,4.874,9.618,1.457,13.843c-6.55,8.092-13.458,16.138-20.521,23.915
					C2099.28,2861.047,2096.616,2862.131,2093.937,2862.131z M2143.85,2798.14c-1.872,0-3.764-0.53-5.44-1.645
					c-4.529-3.01-5.759-9.118-2.748-13.643c5.585-8.403,10.998-17.08,16.088-25.787c2.741-4.694,8.776-6.278,13.459-3.533
					c4.693,2.741,6.278,8.765,3.533,13.458c-5.278,9.038-10.891,18.041-16.688,26.756
					C2150.158,2796.599,2147.033,2798.14,2143.85,2798.14z M2183.522,2727.342c-1.384,0-2.791-0.296-4.133-0.915
					c-4.928-2.288-7.073-8.138-4.79-13.071c4.263-9.191,8.3-18.594,11.998-27.955c2.003-5.052,7.715-7.531,12.771-5.536
					c5.055,1.999,7.531,7.716,5.535,12.771c-3.84,9.71-8.026,19.467-12.444,29.001
					C2190.792,2725.228,2187.236,2727.342,2183.522,2727.342z M2211.992,2651.307c-0.907,0-1.826-0.127-2.741-0.392
					c-5.22-1.511-8.226-6.969-6.716-12.189c2.806-9.695,5.363-19.583,7.596-29.393c1.203-5.301,6.469-8.646,11.779-7.412
					c5.301,1.207,8.619,6.481,7.412,11.779c-2.318,10.18-4.967,20.444-7.881,30.5
					C2220.196,2648.505,2216.263,2651.307,2211.992,2651.307z M2228.592,2571.897c-0.427,0-0.857-0.027-1.292-0.085
					c-5.389-0.707-9.184-5.647-8.476-11.037c1.307-9.972,2.349-20.136,3.094-30.211c0.4-5.417,5.113-9.48,10.541-9.088
					c5.42,0.4,9.488,5.121,9.088,10.541c-0.773,10.441-1.853,20.982-3.21,31.319
					C2237.687,2568.292,2233.458,2571.897,2228.592,2571.897z M2233.113,2490.881c-5.347,0-9.734-4.282-9.838-9.656
					c-0.188-10.064-0.676-20.271-1.449-30.334c-0.415-5.421,3.644-10.149,9.061-10.568c5.378-0.396,10.153,3.64,10.568,9.061
					c0.8,10.441,1.303,21.028,1.503,31.473c0.1,5.432-4.221,9.922-9.656,10.025
					C2233.239,2490.881,2233.174,2490.881,2233.113,2490.881z"/>
				<path style="fill:#FFFFFF;" d="M1383.701,2936.924c-1.995,0-4.01-0.604-5.751-1.861c-4.332-3.129-8.618-6.316-12.855-9.564
					c-4.313-3.306-5.128-9.483-1.818-13.797c3.306-4.313,9.48-5.132,13.797-1.819c4.083,3.133,8.215,6.205,12.394,9.218
					c4.409,3.183,5.401,9.334,2.222,13.74C1389.763,2935.509,1386.753,2936.924,1383.701,2936.924z"/>
			</g>
			<g>
				
					<linearGradient id="SVGID_00000155146317664147679810000011282751910859422103_" gradientUnits="userSpaceOnUse" x1="5990.2446" y1="1724.4102" x2="7255.3735" y2="3956.3896" gradientTransform="matrix(-0.4937 0.8696 -0.8696 -0.4937 6622.9307 -1869.9039)">
					<stop  offset="0" style="stop-color:#CB236D"/>
					<stop  offset="1" style="stop-color:#4C246D"/>
				</linearGradient>
				<path style="fill:url(#SVGID_00000155146317664147679810000011282751910859422103_);" d="M1407.397,2784.773
					c1.736,2.127,4.631,2.919,7.208,1.972l73.518-27.036c28.982,22.321,61.732,40.182,97.334,52.417l17.931,76.199
					c0.629,2.674,2.885,4.652,5.616,4.93l93.48,9.47c2.733,0.276,5.339-1.211,6.49-3.703l32.848-71.056
					c37.333-4.849,72.998-15.778,105.868-31.834l66.604,41.23c2.335,1.445,5.329,1.249,7.456-0.486l72.797-59.405
					c2.128-1.737,2.919-4.632,1.971-7.208l-27.036-73.518c22.321-28.982,40.181-61.732,52.417-97.334l76.201-17.931
					c2.673-0.629,4.652-2.884,4.928-5.615l9.47-93.482c0.277-2.731-1.21-5.339-3.703-6.49l-71.057-32.847
					c-4.848-37.333-15.776-73-31.833-105.868l41.231-66.604c1.444-2.334,1.25-5.329-0.486-7.456l-59.405-72.795
					c-1.736-2.129-4.631-2.919-7.208-1.972l-73.518,27.036c-28.981-22.323-61.732-40.182-97.334-52.417l-17.931-76.202
					c-0.629-2.672-2.884-4.652-5.615-4.929l-93.481-9.469c-2.732-0.277-5.338,1.21-6.49,3.703l-32.847,71.056
					c-37.333,4.848-72.999,15.777-105.869,31.834l-66.602-41.23c-2.334-1.446-5.33-1.25-7.457,0.486l-72.796,59.404
					c-2.126,1.736-2.918,4.63-1.971,7.207l27.034,73.518c-22.321,28.982-40.18,61.733-52.416,97.334l-76.202,17.931
					c-2.672,0.627-4.652,2.883-4.928,5.616l-9.469,93.479c-0.276,2.732,1.209,5.339,3.702,6.492l71.057,32.847
					c4.849,37.332,15.778,72.998,31.833,105.868l-41.229,66.604c-1.446,2.335-1.25,5.328,0.485,7.457L1407.397,2784.773z"/>
				<path style="fill:#FFFFFF;" d="M1697.265,2578.86c-44.508,0-83.592-32.684-90.269-78.003
					c-7.342-49.801,27.205-96.293,77.011-103.636c24.103-3.56,48.191,2.491,67.773,17.042c19.575,14.55,32.311,35.847,35.866,59.973
					c7.342,49.806-27.205,96.297-77.011,103.64h-0.004C1706.141,2578.536,1701.674,2578.86,1697.265,2578.86z M1709.486,2570.087
					h0.039H1709.486z M1697.48,2411.975c-3.71,0-7.438,0.273-11.175,0.823c-41.218,6.078-69.807,44.551-63.733,85.764
					c6.07,41.218,44.527,69.795,85.764,63.737l0,0c41.218-6.077,69.807-44.551,63.733-85.764
					c-2.941-19.967-13.482-37.592-29.681-49.633C1729.218,2417.115,1713.591,2411.975,1697.48,2411.975z"/>
				<path style="fill:#FFFFFF;" d="M1699.183,2716.843c-7.854,0-15.749-0.4-23.669-1.199l0,0
					c-12.616-1.28-25.114-3.586-37.285-6.877c-0.315-0.085-0.627-0.173-0.942-0.258c-0.373-0.104-0.742-0.207-1.115-0.311
					c-0.235-0.065-0.473-0.131-0.707-0.2c-1.08-0.303-2.16-0.619-3.237-0.942c-1.599-0.481-3.191-0.977-4.778-1.491
					c-1.665-0.539-2.722-2.08-2.722-3.74c0-0.404,0.061-0.815,0.192-1.219c0.669-2.064,2.891-3.202,4.959-2.53
					c14.989,4.855,30.611,8.13,46.426,9.734c59.22,6.005,117.202-11.425,163.306-49.044c46.104-37.623,74.796-90.946,80.794-150.151
					c0.773-7.607,1.149-15.169,1.146-22.657c-0.015-112.816-85.729-209.832-200.337-221.441
					c-122.234-12.363-231.721,76.972-244.103,199.191c-0.765,7.535-1.142,15.081-1.142,22.604
					c0.008,32.606,7.15,64.852,21.028,94.391c0.254,0.538,0.373,1.111,0.373,1.672c0,1.476-0.838,2.895-2.264,3.564
					c-1.965,0.919-4.31,0.081-5.236-1.892c-14.37-30.584-21.766-63.971-21.774-97.731c0-7.788,0.392-15.6,1.18-23.4
					c12.821-126.532,126.228-219.046,252.73-206.234c118.659,12.021,207.402,112.466,207.418,229.268
					c0.004,7.754-0.388,15.581-1.184,23.457c-6.208,61.296-35.916,116.507-83.65,155.46
					C1803.023,2698.783,1752.118,2716.843,1699.183,2716.843z"/>
			</g>
		</g>
		<g>
			<g style="opacity:0.64;">
				<path style="fill:#FFFFFF;" d="M1951.69,2055.698c-2.043,0-3.925-1.333-4.529-3.39c-1.121-3.801-2.15-7.73-3.068-11.688
					c-0.586-2.542,0.997-5.078,3.538-5.669c2.56-0.581,5.083,0.996,5.669,3.538c0.871,3.778,1.854,7.532,2.919,11.153
					c0.738,2.505-0.692,5.129-3.196,5.863C1952.58,2055.638,1952.128,2055.698,1951.69,2055.698z"/>
				<path style="fill:#FFFFFF;" d="M1944.84,2021.925c-2.371,0-4.41-1.776-4.686-4.184c-0.877-7.638-1.333-15.433-1.356-23.168
					c-0.009-2.606,2.099-4.728,4.709-4.737h0.014c2.602,0,4.714,2.103,4.723,4.709c0.023,7.385,0.457,14.829,1.292,22.117
					c0.3,2.592-1.564,4.935-4.151,5.23C1945.2,2021.916,1945.02,2021.925,1944.84,2021.925z M1944.707,1976.64
					c-0.166,0-0.337-0.009-0.507-0.028c-2.597-0.277-4.474-2.606-4.193-5.198c0.826-7.689,2.089-15.387,3.754-22.891
					c0.567-2.546,3.114-4.119,5.637-3.589c2.546,0.567,4.151,3.09,3.589,5.637c-1.592,7.163-2.8,14.515-3.589,21.849
					C1949.139,1974.841,1947.092,1976.64,1944.707,1976.64z M1954.513,1932.439c-0.507,0-1.024-0.083-1.531-0.254
					c-2.468-0.849-3.782-3.533-2.938-6.001c2.509-7.311,5.457-14.543,8.759-21.504c1.121-2.352,3.93-3.353,6.291-2.242
					c2.357,1.117,3.362,3.934,2.242,6.292c-3.15,6.642-5.964,13.542-8.353,20.516
					C1958.309,1931.208,1956.473,1932.439,1954.513,1932.439z M1973.927,1891.517c-0.848,0-1.711-0.23-2.486-0.71
					c-2.214-1.375-2.897-4.285-1.522-6.503c4.064-6.55,8.547-12.947,13.325-19.004c1.614-2.043,4.585-2.394,6.633-0.784
					c2.048,1.614,2.398,4.585,0.784,6.633c-4.557,5.78-8.837,11.882-12.717,18.136
					C1977.05,1890.724,1975.504,1891.517,1973.927,1891.517z M2001.957,1855.942c-1.199,0-2.398-0.452-3.316-1.361
					c-1.859-1.831-1.877-4.82-0.046-6.678c5.415-5.489,11.194-10.733,17.181-15.586c2.034-1.652,5.005-1.324,6.642,0.692
					c1.647,2.025,1.333,5-0.692,6.642c-5.72,4.635-11.236,9.645-16.407,14.885
					C2004.396,1855.471,2003.174,1855.942,2001.957,1855.942z M2037.136,1827.427c-1.554,0-3.077-0.766-3.981-2.173
					c-1.407-2.195-0.77-5.12,1.425-6.526c6.49-4.161,13.284-8.002,20.189-11.416c2.343-1.162,5.175-0.198,6.328,2.14
					c1.158,2.339,0.198,5.171-2.14,6.329c-6.596,3.261-13.081,6.928-19.276,10.899
					C2038.893,1827.188,2038.007,1827.427,2037.136,1827.427z M2232.372,1814.328c-0.664,0-1.342-0.143-1.988-0.443
					c-6.665-3.099-13.588-5.862-20.576-8.206c-2.472-0.83-3.805-3.51-2.975-5.982c0.835-2.472,3.524-3.796,5.982-2.975
					c7.32,2.458,14.571,5.35,21.553,8.602c2.366,1.098,3.39,3.907,2.288,6.273
					C2235.859,1813.318,2234.152,1814.328,2232.372,1814.328z M2077.707,1807.391c-1.933,0-3.745-1.194-4.442-3.118
					c-0.885-2.454,0.383-5.161,2.837-6.047c7.251-2.62,14.727-4.857,22.227-6.646c2.528-0.586,5.088,0.959,5.692,3.496
					c0.604,2.537-0.959,5.087-3.496,5.692c-7.159,1.711-14.294,3.842-21.213,6.342
					C2078.781,1807.303,2078.242,1807.391,2077.707,1807.391z M2189.434,1799.932c-0.328,0-0.66-0.032-0.992-0.106
					c-7.2-1.536-14.561-2.689-21.886-3.427c-2.597-0.263-4.488-2.578-4.229-5.175c0.263-2.588,2.537-4.469,5.175-4.225
					c7.666,0.77,15.378,1.979,22.915,3.593c2.551,0.544,4.179,3.053,3.63,5.604
					C2193.576,1798.415,2191.616,1799.932,2189.434,1799.932z M2121.747,1796.889c-2.352,0-4.391-1.758-4.682-4.151
					c-0.318-2.588,1.522-4.945,4.114-5.258c7.643-0.937,15.429-1.449,23.15-1.522c0.014,0,0.032,0,0.032,0
					c2.602,0,4.714,2.085,4.737,4.677c0.023,2.61-2.071,4.741-4.677,4.769c-7.371,0.07-14.806,0.558-22.098,1.449
					C2122.129,1796.879,2121.936,1796.889,2121.747,1796.889z"/>
				<path style="fill:#FFFFFF;" d="M2262.445,1831.625c-0.932,0-1.873-0.273-2.694-0.849c-3.086-2.145-6.329-4.266-9.645-6.296
					c-2.223-1.361-2.925-4.271-1.559-6.494c1.356-2.223,4.267-2.92,6.494-1.559c3.473,2.126,6.873,4.345,10.106,6.601
					c2.14,1.49,2.671,4.432,1.177,6.573C2265.406,1830.919,2263.939,1831.625,2262.445,1831.625z"/>
			</g>
			<g style="opacity:0.64;">
				<path style="fill:#FFFFFF;" d="M2347.697,1969.606c-2.315,0-4.336-1.702-4.673-4.054c-0.544-3.815-1.204-7.634-1.96-11.356
					c-0.517-2.555,1.135-5.051,3.69-5.571c2.611-0.475,5.051,1.139,5.572,3.69c0.789,3.902,1.481,7.906,2.053,11.9
					c0.369,2.583-1.426,4.977-4.008,5.346C2348.144,1969.592,2347.918,1969.606,2347.697,1969.606z"/>
				<path style="fill:#FFFFFF;" d="M2149.348,2201.594c-2.583,0-4.691-2.075-4.723-4.668c-0.033-2.606,2.057-4.746,4.668-4.778
					c8.003-0.097,16.079-0.687,24.008-1.753c2.601-0.327,4.963,1.467,5.309,4.054c0.346,2.583-1.467,4.963-4.054,5.309
					c-8.302,1.116-16.766,1.734-25.152,1.836C2149.385,2201.594,2149.366,2201.594,2149.348,2201.594z M2124.717,2200.418
					c-0.17,0-0.341-0.009-0.512-0.028c-8.353-0.904-16.725-2.32-24.875-4.215c-2.542-0.586-4.119-3.127-3.528-5.669
					c0.586-2.542,3.146-4.142,5.669-3.529c7.781,1.803,15.77,3.159,23.75,4.022c2.592,0.281,4.469,2.61,4.188,5.202
					C2129.145,2198.624,2127.097,2200.418,2124.717,2200.418z M2198.101,2195.021c-2.094,0-4.013-1.406-4.566-3.529
					c-0.659-2.527,0.854-5.106,3.377-5.766c7.721-2.015,15.415-4.538,22.873-7.504c2.426-0.95,5.166,0.217,6.134,2.647
					c0.959,2.422-0.221,5.171-2.648,6.135c-7.813,3.104-15.881,5.751-23.971,7.864
					C2198.899,2194.971,2198.498,2195.021,2198.101,2195.021z M2076.771,2189.26c-0.54,0-1.084-0.092-1.619-0.286
					c-7.873-2.878-15.655-6.278-23.132-10.106c-2.32-1.186-3.238-4.031-2.048-6.356c1.19-2.32,4.027-3.238,6.356-2.048
					c7.131,3.649,14.557,6.891,22.062,9.635c2.454,0.895,3.713,3.607,2.818,6.056
					C2080.507,2188.075,2078.699,2189.26,2076.771,2189.26z M2243.834,2176.862c-1.67,0-3.289-0.885-4.147-2.458
					c-1.254-2.288-0.415-5.157,1.877-6.407c7.025-3.842,13.883-8.15,20.387-12.804c2.131-1.517,5.073-1.024,6.591,1.093
					c1.518,2.122,1.029,5.074-1.093,6.592c-6.813,4.871-13.999,9.382-21.356,13.403
					C2245.374,2176.677,2244.599,2176.862,2243.834,2176.862z M2283.851,2148.233c-1.278,0-2.551-0.517-3.482-1.531
					c-1.762-1.924-1.633-4.913,0.291-6.674c5.904-5.406,11.536-11.232,16.739-17.311c1.707-1.988,4.686-2.2,6.66-0.516
					c1.984,1.697,2.214,4.677,0.517,6.66c-5.452,6.365-11.351,12.468-17.532,18.132
					C2286.134,2147.822,2284.99,2148.233,2283.851,2148.233z M2315.866,2110.853c-0.899,0-1.808-0.254-2.61-0.789
					c-2.173-1.443-2.763-4.377-1.319-6.55c4.442-6.679,8.51-13.685,12.094-20.83c1.162-2.329,4.004-3.279,6.337-2.103
					c2.334,1.167,3.275,4.009,2.104,6.338c-3.755,7.486-8.017,14.829-12.666,21.826
					C2318.896,2110.115,2317.393,2110.853,2315.866,2110.853z M2337.937,2066.841c-0.526,0-1.061-0.087-1.587-0.276
					c-2.458-0.877-3.736-3.575-2.859-6.033c2.684-7.532,4.935-15.313,6.683-23.127c0.572-2.542,3.095-4.142,5.641-3.575
					c2.546,0.567,4.146,3.095,3.574,5.641c-1.831,8.187-4.188,16.342-7.006,24.234
					C2341.696,2065.638,2339.878,2066.841,2337.937,2066.841z M2348.711,2018.83c-0.157,0-0.309-0.009-0.47-0.023
					c-2.597-0.258-4.492-2.569-4.234-5.166c0.203-2.053,0.378-4.11,0.521-6.176c0.318-4.594,0.48-9.253,0.48-13.838
					c0-1.356-0.014-2.708-0.042-4.064c-0.051-2.606,2.02-4.76,4.63-4.815c0.028,0,0.06,0,0.06,0c2.597,0,4.705,2.053,4.756,4.631
					c0.027,1.411,0.042,2.827,0.042,4.248c0,4.802-0.166,9.677-0.498,14.488c-0.152,2.163-0.337,4.312-0.549,6.457
					C2353.167,2017.009,2351.11,2018.83,2348.711,2018.83z"/>
				<path style="fill:#FFFFFF;" d="M2032.763,2166.719c-0.913,0-1.831-0.262-2.643-0.811c-3.321-2.251-6.614-4.626-9.797-7.062
					c-2.071-1.587-2.463-4.552-0.877-6.623c1.592-2.062,4.553-2.458,6.624-0.877c3.035,2.33,6.181,4.594,9.345,6.739
					c2.163,1.462,2.726,4.4,1.264,6.559C2035.766,2165.995,2034.276,2166.719,2032.763,2166.719z"/>
			</g>
			<g>
				
					<linearGradient id="SVGID_00000072281227833204681440000016242215262556844941_" gradientUnits="userSpaceOnUse" x1="2002.0349" y1="2336.1951" x2="2190.0186" y2="1889.3489">
					<stop  offset="0" style="stop-color:#CB236D"/>
					<stop  offset="0.0721" style="stop-color:#C2236D"/>
					<stop  offset="1" style="stop-color:#4C246D"/>
				</linearGradient>
				<path style="fill:url(#SVGID_00000072281227833204681440000016242215262556844941_);" d="M2036.951,2104.75
					c0.658,0.806,1.754,1.106,2.73,0.747l27.846-10.24c10.977,8.454,23.382,15.219,36.865,19.853l6.792,28.862
					c0.238,1.012,1.093,1.761,2.127,1.866l35.406,3.587c1.035,0.105,2.022-0.459,2.458-1.403l12.441-26.913
					c14.141-1.836,27.649-5.975,40.099-12.057l25.226,15.617c0.884,0.546,2.019,0.473,2.824-0.184l27.572-22.5
					c0.807-0.658,1.106-1.754,0.747-2.729l-10.24-27.846c8.454-10.977,15.219-23.381,19.853-36.865l28.861-6.791
					c1.013-0.238,1.762-1.093,1.867-2.127l3.587-35.407c0.104-1.034-0.459-2.022-1.404-2.458l-26.913-12.441
					c-1.836-14.14-5.975-27.648-12.057-40.098l15.617-25.227c0.547-0.884,0.473-2.019-0.184-2.824l-22.5-27.572
					c-0.657-0.806-1.754-1.106-2.73-0.747l-27.845,10.24c-10.977-8.454-23.381-15.219-36.866-19.853l-6.791-28.862
					c-0.239-1.012-1.092-1.762-2.127-1.867l-35.406-3.586c-1.035-0.105-2.022,0.458-2.458,1.402l-12.441,26.913
					c-14.14,1.835-27.649,5.975-40.099,12.057l-25.226-15.615c-0.884-0.548-2.019-0.474-2.824,0.183l-27.572,22.5
					c-0.805,0.658-1.105,1.754-0.747,2.73l10.24,27.845c-8.455,10.977-15.219,23.381-19.854,36.866l-28.862,6.791
					c-1.011,0.238-1.762,1.092-1.867,2.127l-3.586,35.406c-0.104,1.034,0.458,2.022,1.402,2.458l26.913,12.441
					c1.837,14.14,5.977,27.648,12.057,40.098l-15.616,25.227c-0.548,0.884-0.473,2.018,0.184,2.824L2036.951,2104.75z"/>
				<path style="opacity:0.56;fill:#FFFFFF;" d="M2146.741,2028.503c-17.712,0-33.26-13.003-35.913-31.033
					c-2.92-19.81,10.821-38.311,30.636-41.23c19.815-2.901,38.311,10.825,41.231,30.641c1.416,9.594-0.991,19.169-6.78,26.96
					c-5.789,7.786-14.262,12.854-23.86,14.271l0,0C2150.27,2028.373,2148.494,2028.503,2146.741,2028.503z M2151.368,2023.438h0.046
					H2151.368z M2146.778,1965.293c-1.301,0-2.615,0.097-3.939,0.291c-14.658,2.163-24.829,15.848-22.666,30.511
					c1.047,7.099,4.797,13.372,10.558,17.652c5.756,4.281,12.836,6.057,19.949,5.018c7.103-1.047,13.372-4.797,17.652-10.562
					c4.285-5.761,6.065-12.846,5.018-19.949C2171.381,1974.915,2159.878,1965.293,2146.778,1965.293z"/>
				<path style="opacity:0.56;fill:#FFFFFF;" d="M2147.479,2082.251c-3.09,0-6.19-0.157-9.304-0.47
					c-6.245-0.632-12.412-1.905-18.344-3.786c-0.175-0.055-0.355-0.111-0.535-0.171c-1.998-0.646-3.266-2.5-3.266-4.488
					c0-0.484,0.074-0.978,0.23-1.462c0.802-2.477,3.454-3.838,5.95-3.035c5.456,1.767,11.143,2.961,16.914,3.542l0,0
					c0.272,0.028,0.544,0.055,0.817,0.078c13.574,1.245,26.987-0.899,39.22-6.135c6.918-2.966,13.459-6.914,19.446-11.804
					c16.794-13.703,27.245-33.131,29.432-54.694c0.281-2.791,0.424-5.577,0.424-8.34c-0.004-18.62-6.356-36.521-18.288-51.143
					c-13.704-16.794-33.127-27.245-54.69-29.427c-21.605-2.173-42.698,4.155-59.487,17.859
					c-16.793,13.704-27.245,33.131-29.427,54.695c-0.277,2.744-0.415,5.494-0.415,8.233c0,11.877,2.601,23.62,7.657,34.381
					c0.304,0.646,0.447,1.329,0.447,2.002c0.005,1.771-1.001,3.473-2.717,4.28c-2.357,1.116-5.18,0.093-6.282-2.269
					c-5.65-12.029-8.556-25.161-8.551-38.436c0-3.044,0.152-6.098,0.461-9.142c2.44-24.077,14.11-45.76,32.854-61.059
					c18.745-15.3,42.328-22.366,66.41-19.944c24.077,2.44,45.76,14.105,61.06,32.855c13.321,16.323,20.41,36.309,20.414,57.097
					c0,3.086-0.157,6.195-0.47,9.308c-2.44,24.077-14.109,45.765-32.859,61.06
					C2188.258,2075.162,2168.268,2082.251,2147.479,2082.251z"/>
			</g>
		</g>
		<g>
			<g>
				<g>
					<path style="fill:#FFFFFF;" d="M2404.411,3109.137c-0.304,0-0.604-0.019-0.908-0.056l-52.569-6.371
						c-3.157-0.379-5.736-2.729-6.408-5.845l-8.815-41.085c-18.609-7.039-35.976-16.837-51.687-29.166l-39.741,13.733
						c-3.011,1.04-6.36,0.049-8.323-2.458l-32.665-41.678c-1.963-2.508-2.121-5.992-0.39-8.665l22.829-35.304
						c-8.214-18.2-13.579-37.406-15.966-57.164l-37.781-18.376c-2.868-1.393-4.539-4.456-4.148-7.621l6.375-52.573
						c0.383-3.161,2.733-5.733,5.845-6.405l41.081-8.815c7.039-18.613,16.841-35.98,29.166-51.687l-13.732-39.741
						c-1.036-3.011-0.049-6.352,2.455-8.319l41.682-32.665c2.504-1.963,5.992-2.129,8.665-0.394l35.304,22.829
						c18.204-8.214,37.414-13.579,57.164-15.966l18.377-37.782c1.389-2.86,4.437-4.509,7.613-4.152l52.576,6.374
						c3.161,0.386,5.736,2.737,6.408,5.849l8.815,41.082c18.609,7.039,35.976,16.837,51.687,29.166l39.741-13.729
						c3.011-1.044,6.352-0.053,8.319,2.451l32.668,41.682c1.96,2.511,2.121,5.991,0.398,8.664l-22.833,35.307
						c8.214,18.204,13.575,37.414,15.962,57.161l37.781,18.377c2.868,1.4,4.535,4.463,4.148,7.625l-6.371,52.569
						c-0.39,3.168-2.74,5.74-5.852,6.405l-41.078,8.814c-7.039,18.61-16.837,35.976-29.166,51.687l13.733,39.741
						c1.036,3.019,0.049,6.363-2.459,8.323l-41.678,32.665c-2.511,1.959-5.984,2.117-8.661,0.398l-35.312-22.833
						c-18.211,8.214-37.421,13.582-57.16,15.966l-18.376,37.782C2409.862,3107.527,2407.238,3109.137,2404.411,3109.137z
						 M2285.51,3017.968l1.656,1.325c16.049,12.873,33.941,22.968,53.181,30.007l1.993,0.732l9.701,45.215l52.389,6.202
						l20.006-41.46l2.11-0.233c20.355-2.234,40.143-7.763,58.816-16.428l1.926-0.894l38.852,25.126l41.43-32.657l-15.178-43.496
						l1.325-1.655c12.873-16.049,22.968-33.941,30.007-53.181l0.732-1.993l45.215-9.701l6.202-52.385l-41.464-20.009l-0.233-2.11
						c-2.237-20.362-7.76-40.15-16.424-58.816l-0.894-1.926l25.127-38.852l-32.657-41.43l-43.495,15.178l-1.656-1.325
						c-16.049-12.873-33.941-22.968-53.181-30.007l-1.993-0.732l-9.701-45.211l-52.389-6.205l-20.006,41.464l-2.11,0.233
						c-20.366,2.237-40.154,7.763-58.816,16.428l-1.922,0.893l-38.855-25.126l-41.431,32.653l15.178,43.496l-1.326,1.656
						c-12.869,16.045-22.968,33.937-30.007,53.181l-0.732,1.994l-45.061,9.671l-6.356,52.419l41.465,20.006l0.232,2.11
						c2.238,20.37,7.764,40.158,16.428,58.816l0.893,1.922l-25.127,38.859l32.654,41.427L2285.51,3017.968z M2406.878,3002.28
						c-5.346,0-10.722-0.323-16.109-0.976c-23.689-2.872-46.116-12.092-64.856-26.662c-1.678-1.303-1.982-3.717-0.676-5.391
						c1.299-1.675,3.72-1.99,5.391-0.676c17.644,13.714,38.758,22.39,61.064,25.093c32.875,3.979,65.315-5.068,91.372-25.487
						c26.057-20.418,42.602-49.768,46.585-82.632c3.987-32.867-5.064-65.314-25.487-91.372
						c-20.419-26.057-49.765-42.602-82.629-46.585c-67.841-8.259-129.735,40.271-137.961,108.115
						c-1.066,8.777-1.201,17.656-0.398,26.392c0.191,2.117-1.363,3.987-3.476,4.182c-2.114,0.236-3.987-1.367-4.182-3.477
						c-0.849-9.28-0.709-18.707,0.42-28.021c8.74-72.053,74.475-123.545,146.52-114.828c34.902,4.231,66.069,21.804,87.757,49.476
						c21.688,27.675,31.302,62.139,27.071,97.041c-4.235,34.906-21.804,66.073-49.479,87.76
						C2464.406,2992.571,2436.149,3002.276,2406.878,3002.28z"/>
					<path style="fill:#FFFFFF;" d="M2405.691,2922.144c-6.183,0-12.377-1.141-18.316-3.435
						c-12.678-4.884-22.694-14.416-28.205-26.838c-5.507-12.419-5.849-26.241-0.961-38.919
						c10.087-26.17,39.587-39.261,65.757-29.166c26.17,10.087,39.253,39.587,29.166,65.758
						c-4.884,12.681-14.416,22.698-26.838,28.205C2419.694,2920.676,2412.7,2922.144,2405.691,2922.144z M2405.657,2828.046
						c-5.954,0-11.889,1.246-17.494,3.728c-10.542,4.678-18.636,13.181-22.784,23.94c-4.144,10.763-3.855,22.499,0.819,33.04
						c4.677,10.542,13.181,18.636,23.94,22.784c10.767,4.148,22.499,3.859,33.04-0.818c10.542-4.678,18.635-13.181,22.784-23.94
						c8.56-22.217-2.545-47.257-24.758-55.824C2416.158,2829.015,2410.902,2828.046,2405.657,2828.046z"/>
				</g>
				<g>
					<path style="fill:#FFFFFF;" d="M2782.351,2770.068c-1.611,0-3.184-0.698-4.268-1.979l-12.366-14.618
						c-8.995,1.073-18.057,0.875-26.981-0.601l-13,14.029c-1.63,1.753-4.19,2.267-6.356,1.314l-23.302-10.279
						c-2.173-0.957-3.51-3.195-3.319-5.567l1.596-19.071c-7.099-5.597-13.354-12.148-18.64-19.521l-19.127,0.724
						c-2.32,0.124-4.558-1.333-5.421-3.559l-9.213-23.752c-0.86-2.215-0.218-4.741,1.599-6.281l14.619-12.366
						c-1.07-9.002-0.867-18.061,0.601-26.981l-14.029-13.004c-1.75-1.629-2.275-4.178-1.314-6.356l10.279-23.306
						c0.965-2.177,3.195-3.555,5.59-3.307l19.049,1.588c5.598-7.095,12.149-13.35,19.521-18.639l-0.724-19.124
						c-0.098-2.388,1.34-4.572,3.574-5.428l23.737-9.209c2.226-0.863,4.745-0.218,6.284,1.599l12.362,14.619
						c9.006-1.07,18.065-0.864,26.981,0.6l13.004-14.025c1.618-1.753,4.171-2.279,6.355-1.318l23.302,10.279
						c2.177,0.961,3.51,3.202,3.318,5.571l-1.595,19.071c7.103,5.601,13.361,12.156,18.639,19.521l19.124-0.728
						c2.448-0.184,4.562,1.344,5.425,3.551l9.213,23.76c0.86,2.215,0.221,4.741-1.6,6.284l-14.618,12.366
						c1.07,8.995,0.867,18.05-0.601,26.981l14.029,13c1.746,1.626,2.271,4.174,1.314,6.352l-10.279,23.306
						c-0.953,2.174-3.187,3.506-5.567,3.318l-19.075-1.595c-5.598,7.103-12.152,13.361-19.521,18.643l0.728,19.123
						c0.098,2.373-1.333,4.558-3.559,5.421l-23.752,9.213C2783.71,2769.944,2783.027,2770.068,2782.351,2770.068z
						 M2768.866,2745.287l14.115,16.691l20.959-8.124l-0.833-21.845l1.753-1.198c7.981-5.462,14.971-12.137,20.775-19.841
						l1.276-1.697l21.77,1.821l9.07-20.565l-16.019-14.848l0.387-2.083c1.776-9.487,1.993-19.15,0.642-28.719l-0.297-2.102
						l16.691-14.116l-8.124-20.959l-21.849,0.833l-1.198-1.753c-5.458-7.981-12.133-14.971-19.837-20.775l-1.697-1.276l1.821-21.77
						l-20.565-9.07l-14.851,16.019l-2.084-0.387c-9.479-1.78-19.142-1.99-28.719-0.642l-2.102,0.297l-14.112-16.691l-20.959,8.128
						l0.83,21.845l-1.753,1.198c-7.989,5.466-14.975,12.141-20.771,19.837l-1.276,1.693l-21.77-1.813l-9.07,20.561l16.023,14.852
						l-0.395,2.087c-1.776,9.471-1.989,19.135-0.638,28.715l0.297,2.102l-16.691,14.115l8.124,20.956l21.849-0.83l1.198,1.753
						c5.462,7.989,12.137,14.976,19.836,20.772l1.697,1.276l-1.821,21.77l20.565,9.07l14.848-16.023l2.087,0.394
						c9.472,1.772,19.135,1.986,28.715,0.638L2768.866,2745.287z M2803.998,2755.348c0,0.004,0,0.004,0,0.007V2755.348z
						 M2699.175,2750.899h0.004H2699.175z M2848.079,2712.464v0.004V2712.464z M2656.299,2706.818h-0.011H2656.299z
						 M2649.121,2684.406l0.004,0.004C2649.125,2684.406,2649.121,2684.406,2649.121,2684.406z M2859.697,2630.053
						c0,0.004,0.004,0.004,0.004,0.004L2859.697,2630.053z M2658.649,2603.245c0.004,0.004,0.007,0.004,0.007,0.004
						L2658.649,2603.245z M2660.743,2602.002l-0.004,0.004C2660.74,2602.006,2660.74,2602.002,2660.743,2602.002L2660.743,2602.002z
						 M2703.499,2561.15l-0.015,0.007C2703.492,2561.154,2703.495,2561.154,2703.499,2561.15z M2704.824,2559.112v0.008
						C2704.824,2559.119,2704.824,2559.115,2704.824,2559.112z M2754.837,2722.383c-8.792,0-17.716-1.783-26.26-5.552
						c-10.834-4.779-20.152-12.389-26.947-22.007c-1.228-1.734-0.815-4.133,0.919-5.357c1.738-1.227,4.137-0.811,5.357,0.92
						c5.991,8.485,14.213,15.193,23.771,19.409c29.064,12.828,63.144-0.398,75.969-29.463c12.82-29.068-0.398-63.148-29.467-75.969
						c-14.081-6.209-29.736-6.562-44.084-1.002c-14.348,5.563-25.671,16.383-31.88,30.465c-1.659,3.761-2.917,7.692-3.743,11.69
						c-0.432,2.08-2.463,3.401-4.543,2.988c-2.08-0.428-3.416-2.462-2.988-4.542c0.935-4.528,2.361-8.984,4.238-13.237
						c7.039-15.962,19.874-28.224,36.137-34.53c16.259-6.307,34.005-5.905,49.964,1.134c32.95,14.532,47.933,53.158,33.401,86.105
						C2803.919,2707.835,2779.933,2722.379,2754.837,2722.383z"/>
				</g>
			</g>
		</g>
		<g>
			<g style="opacity:0.3;">
				
					<linearGradient id="SVGID_00000045582725096281058640000005913702241178999999_" gradientUnits="userSpaceOnUse" x1="1402.3456" y1="1500.3494" x2="1420.6174" y2="1500.3494" gradientTransform="matrix(0.9138 0.4061 -0.4061 0.9138 -1.6347 823.023)">
					<stop  offset="0" style="stop-color:#B37CFF"/>
					<stop  offset="1" style="stop-color:#F895E7"/>
				</linearGradient>
				<path style="fill:url(#SVGID_00000045582725096281058640000005913702241178999999_);" d="M674.659,2782.148
					c-2.744-1.219-4.476-4.132-4.057-7.261c0.778-5.84,1.745-11.738,2.873-17.526c0.733-3.761,4.375-6.215,8.141-5.484
					c3.771,0.719,6.217,4.379,5.484,8.141c-1.075,5.515-1.997,11.136-2.741,16.709c-0.504,3.796-3.996,6.464-7.797,5.962
					C675.887,2782.597,675.25,2782.411,674.659,2782.148z"/>
				
					<linearGradient id="SVGID_00000142883863634064625210000013546372559377099164_" gradientUnits="userSpaceOnUse" x1="1394.9447" y1="1295.0822" x2="1753.0187" y2="1295.0822" gradientTransform="matrix(0.9138 0.4061 -0.4061 0.9138 -1.6347 823.023)">
					<stop  offset="0" style="stop-color:#B37CFF"/>
					<stop  offset="1" style="stop-color:#F895E7"/>
				</linearGradient>
				<path style="fill:url(#SVGID_00000142883863634064625210000013546372559377099164_);" d="M686.547,2730.096
					c-3.215-1.428-4.889-5.088-3.77-8.499c3.156-9.642,6.846-19.232,10.964-28.498c0.867-1.951,1.759-3.898,2.671-5.844
					c1.635-3.471,5.895-4.746,9.237-3.335c3.469,1.631,4.959,5.764,3.333,9.232c-0.874,1.859-1.727,3.72-2.556,5.584
					c-3.928,8.839-7.446,17.986-10.46,27.179c-1.193,3.646-5.111,5.629-8.755,4.439
					C686.983,2730.275,686.76,2730.191,686.547,2730.096z M717.197,2664.872c-0.3-0.133-0.599-0.288-0.883-0.466
					c-3.246-2.043-4.224-6.327-2.184-9.574c6.542-10.415,13.789-20.515,21.537-30.016c2.422-2.973,6.806-3.399,9.765-0.993
					c2.972,2.426,3.416,6.791,0.994,9.764c-7.392,9.065-14.303,18.7-20.544,28.632
					C724.023,2665.176,720.3,2666.251,717.197,2664.872z M762.749,2609.029c-0.805-0.358-1.554-0.876-2.201-1.549
					c-2.647-2.771-2.541-7.167,0.23-9.815c8.884-8.477,18.396-16.496,28.273-23.818c3.082-2.287,7.417-1.644,9.709,1.443
					c2.283,3.076,1.637,7.425-1.439,9.707c-9.419,6.985-18.487,14.623-26.958,22.711
					C768.266,2609.708,765.242,2610.137,762.749,2609.029z M820.637,2566.091c-1.314-0.584-2.454-1.58-3.219-2.921
					c-1.885-3.337-0.71-7.576,2.627-9.461c10.712-6.054,21.888-11.494,33.23-16.171c3.545-1.458,7.6,0.24,9.06,3.773
					c1.463,3.542-0.224,7.599-3.771,9.064c-10.809,4.454-21.475,9.646-31.687,15.418
					C824.887,2566.919,822.579,2566.954,820.637,2566.091z M887.255,2538.596c-1.834-0.815-3.302-2.417-3.877-4.504
					c-1.017-3.693,1.154-7.512,4.849-8.533c11.847-3.258,24.007-5.821,36.142-7.608c3.797-0.568,7.322,2.059,7.88,5.853
					c0.558,3.793-2.064,7.323-5.852,7.879c-11.58,1.708-23.179,4.149-34.483,7.263
					C890.304,2539.387,888.67,2539.224,887.255,2538.596z M958.519,2528.103c-2.375-1.055-4.057-3.413-4.123-6.186
					c-0.089-3.83,2.946-7.005,6.777-7.097c12.283-0.283,24.7,0.198,36.9,1.435c3.823,0.401,6.59,3.796,6.206,7.608
					c-0.385,3.812-3.793,6.592-7.604,6.204c-11.636-1.18-23.469-1.639-35.179-1.369
					C960.435,2528.724,959.426,2528.506,958.519,2528.103z M1030.166,2535.35c-2.973-1.321-4.694-4.6-3.942-7.885
					c0.855-3.736,4.578-6.073,8.316-5.22c11.938,2.73,23.859,6.248,35.438,10.451c3.588,1.372,5.463,5.299,4.152,8.898
					c-1.307,3.603-5.289,5.461-8.892,4.156c-11.043-4.017-22.414-7.37-33.796-9.973
					C1030.994,2535.674,1030.569,2535.529,1030.166,2535.35z M1129,2578.303c-0.365-0.162-0.726-0.36-1.071-0.594
					c-8.387-5.663-17.23-10.965-26.288-15.76c-1.368-0.734-2.72-1.439-4.077-2.124c-3.417-1.741-4.782-5.915-3.044-9.333
					c1.735-3.428,5.984-4.877,9.332-3.048c1.445,0.738,2.883,1.482,4.318,2.252c9.462,5.013,18.734,10.572,27.527,16.511
					c3.178,2.146,4.014,6.457,1.868,9.634C1135.654,2578.671,1132.02,2579.645,1129,2578.303z"/>
			</g>
			<g style="opacity:0.3;">
				
					<linearGradient id="SVGID_00000137114291684313748800000002231688209560209564_" gradientUnits="userSpaceOnUse" x1="1554.7721" y1="1638.3473" x2="1963.4707" y2="1638.3473" gradientTransform="matrix(0.9138 0.4061 -0.4061 0.9138 -1.6347 823.023)">
					<stop  offset="0" style="stop-color:#B37CFF"/>
					<stop  offset="1" style="stop-color:#F895E7"/>
				</linearGradient>
				<path style="fill:url(#SVGID_00000137114291684313748800000002231688209560209564_);" d="M849.82,3090.153
					c-3.463-1.539-5.055-5.584-3.557-9.079c1.509-3.521,5.591-5.155,9.113-3.642c10.606,4.55,21.579,8.49,32.616,11.711
					c3.646,1.101,5.796,4.926,4.719,8.609c-1.076,3.682-4.931,5.79-8.609,4.719c-11.573-3.385-23.078-7.51-34.195-12.279
					C849.879,3090.179,849.848,3090.165,849.82,3090.153z M818.086,3074.22c-0.23-0.102-0.45-0.215-0.671-0.343
					c-10.457-6.055-20.65-12.81-30.299-20.072c-3.061-2.309-3.677-6.655-1.371-9.717c2.306-3.07,6.669-3.66,9.72-1.377
					c9.207,6.931,18.934,13.375,28.91,19.157c3.316,1.919,4.447,6.167,2.526,9.482
					C825.103,3074.453,821.282,3075.64,818.086,3074.22z M917.854,3109.999c-2.812-1.25-4.546-4.275-4.029-7.457
					c0.613-3.777,4.177-6.347,7.962-5.733c11.399,1.846,23.001,3.019,34.495,3.475c3.837,0.17,6.811,3.383,6.655,7.215
					c-0.15,3.827-3.382,6.812-7.212,6.66c-12.047-0.48-24.213-1.71-36.16-3.651C918.958,3110.408,918.386,3110.235,917.854,3109.999
					z M761.46,3031.539c-0.721-0.32-1.4-0.77-2.003-1.349c-8.699-8.398-16.967-17.419-24.568-26.812
					c-2.414-2.979-1.952-7.35,1.027-9.764c2.973-2.402,7.345-1.943,9.76,1.029c7.25,8.955,15.131,17.552,23.424,25.561
					c2.755,2.663,2.834,7.059,0.171,9.814C767.19,3032.172,764.049,3032.69,761.46,3031.539z M988.661,3112.809
					c-2.245-0.998-3.892-3.16-4.104-5.777c-0.314-3.825,2.531-7.174,6.349-7.488c11.479-0.937,23.019-2.588,34.307-4.915
					c3.761-0.777,7.427,1.646,8.199,5.401c0.772,3.755-1.646,7.427-5.401,8.199c-11.835,2.433-23.936,4.168-35.972,5.155
					C990.84,3113.481,989.686,3113.265,988.661,3112.809z M1058.079,3098.552c-1.719-0.764-3.121-2.218-3.766-4.136
					c-1.219-3.634,0.738-7.571,4.372-8.789c10.948-3.673,21.767-8.041,32.153-12.979c3.466-1.649,7.609-0.172,9.25,3.287
					c1.647,3.461,0.176,7.599-3.284,9.244c-10.891,5.181-22.231,9.762-33.703,13.61
					C1061.39,3099.362,1059.609,3099.231,1058.079,3098.552z M1122.088,3068.072c-1.208-0.537-2.277-1.419-3.036-2.624
					c-2.056-3.235-1.095-7.526,2.142-9.58c9.751-6.177,19.204-13.014,28.096-20.314c2.96-2.423,7.337-1.999,9.766,0.965
					c2.432,2.964,2.003,7.335-0.963,9.77c-9.326,7.65-19.24,14.823-29.464,21.308
					C1126.591,3068.886,1124.138,3068.982,1122.088,3068.072z"/>
				
					<linearGradient id="SVGID_00000054240661353058016610000016281792771784386703_" gradientUnits="userSpaceOnUse" x1="1509.8413" y1="1663.9313" x2="1537.7936" y2="1663.9313" gradientTransform="matrix(0.9138 0.4061 -0.4061 0.9138 -1.6347 823.023)">
					<stop  offset="0" style="stop-color:#B37CFF"/>
					<stop  offset="1" style="stop-color:#F895E7"/>
				</linearGradient>
				<path style="fill:url(#SVGID_00000054240661353058016610000016281792771784386703_);" d="M716.654,2976.17
					c-1.223-0.543-2.302-1.446-3.065-2.667c-3.146-5.04-6.154-10.196-8.949-15.324c-1.831-3.366-0.591-7.584,2.775-9.418
					c3.365-1.82,7.578-0.586,9.418,2.776c2.662,4.892,5.535,9.81,8.534,14.621c2.03,3.252,1.035,7.535-2.216,9.562
					C721.121,2976.983,718.689,2977.074,716.654,2976.17z"/>
			</g>
			<g>
				
					<linearGradient id="SVGID_00000090993789868264553070000016896720852046557836_" gradientUnits="userSpaceOnUse" x1="1950.1766" y1="997.8107" x2="1568.2582" y2="1635.4194" gradientTransform="matrix(0.9138 0.4061 -0.4061 0.9138 -1.6347 823.023)">
					<stop  offset="0" style="stop-color:#CB236D"/>
					<stop  offset="0.0721" style="stop-color:#C2236D"/>
					<stop  offset="1" style="stop-color:#4C246D"/>
				</linearGradient>
				<path style="fill:url(#SVGID_00000090993789868264553070000016896720852046557836_);" d="M758.336,2896.574
					c0.394,1.446,1.663,2.484,3.159,2.582l42.683,2.811c9.514,17.565,21.896,33.74,36.95,47.741l-7.948,42.002
					c-0.279,1.473,0.408,2.961,1.709,3.705l44.55,25.454c1.302,0.744,2.932,0.579,4.06-0.408l32.148-28.177
					c19.706,5.859,39.927,8.314,59.891,7.589l24.095,35.344c0.845,1.238,2.383,1.805,3.829,1.411l49.5-13.503
					c1.447-0.395,2.484-1.664,2.582-3.16l2.81-42.683c17.566-9.513,33.741-21.897,47.741-36.95l42.003,7.949
					c1.473,0.279,2.961-0.408,3.705-1.709l25.454-44.551c0.744-1.302,0.58-2.933-0.409-4.06l-28.176-32.148
					c5.859-19.705,8.314-39.927,7.589-59.89l35.344-24.096c1.238-0.844,1.805-2.382,1.411-3.828l-13.503-49.501
					c-0.394-1.447-1.664-2.483-3.159-2.582l-42.684-2.81c-9.512-17.566-21.896-33.74-36.95-47.741l7.949-42.004
					c0.279-1.473-0.407-2.96-1.709-3.705l-44.551-25.454c-1.302-0.744-2.932-0.579-4.06,0.409l-32.148,28.177
					c-19.706-5.859-39.928-8.314-59.891-7.59l-24.095-35.343c-0.844-1.24-2.383-1.806-3.829-1.411l-49.5,13.503
					c-1.446,0.395-2.484,1.663-2.582,3.16l-2.811,42.682c-17.565,9.513-33.74,21.897-47.741,36.951l-42.003-7.949
					c-1.472-0.279-2.961,0.407-3.704,1.71l-25.454,44.549c-0.744,1.302-0.58,2.932,0.408,4.06l28.176,32.148
					c-5.858,19.705-8.313,39.927-7.59,59.89l-35.344,24.096c-1.239,0.845-1.805,2.382-1.411,3.829L758.336,2896.574z"/>
				<path style="opacity:0.56;fill:#FFFFFF;" d="M947.502,2860.476c-10.232-4.547-18.705-12.22-24.306-22.148
					c-6.889-12.214-8.608-26.381-4.842-39.89c7.767-27.879,36.774-44.243,64.664-36.478c27.91,7.832,44.251,36.789,36.479,64.672
					c-3.764,13.511-12.565,24.746-24.777,31.632c-12.215,6.892-26.383,8.614-39.894,4.844
					C952.303,2862.401,949.853,2861.52,947.502,2860.476z M984.628,2777.25c-1.707-0.759-3.487-1.4-5.337-1.919
					c-20.514-5.711-41.85,6.325-47.567,26.837c-2.767,9.933-1.506,20.358,3.563,29.338c5.07,8.988,13.336,15.449,23.27,18.232l0,0
					c9.936,2.768,20.36,1.503,29.341-3.563c8.987-5.07,15.46-13.334,18.23-23.274
					C1011.328,2804.244,1001.832,2784.894,984.628,2777.25z"/>
				<path style="opacity:0.56;fill:#FFFFFF;" d="M916.949,2931.691c-4.014-1.783-7.967-3.785-11.862-6.005
					c-7.729-4.414-15.018-9.618-21.678-15.485c-0.297-0.266-0.595-0.531-0.892-0.797c-2.297-2.059-2.9-5.301-1.714-7.978
					c0.289-0.65,0.686-1.268,1.185-1.824c2.559-2.853,6.943-3.072,9.799-0.527c6.166,5.537,12.958,10.43,20.183,14.553l0.003,0.001
					c0.396,0.227,0.797,0.45,1.193,0.67c17.187,9.603,36.117,14.557,55.294,14.772c10.41,0.115,20.899-1.172,31.226-3.889
					c0.084-0.022,0.168-0.044,0.252-0.066c0.258-0.072,0.513-0.136,0.768-0.208c30.115-8.218,55.231-27.667,70.716-54.771
					c2.007-3.507,3.816-7.086,5.435-10.729c10.885-24.505,12.992-51.783,5.842-78.005c-8.217-30.115-27.67-55.225-54.771-70.709
					c-27.091-15.465-58.617-19.489-88.732-11.279c-30.115,8.217-55.231,27.667-70.716,54.771c-1.973,3.447-3.76,6.985-5.362,10.59
					c-6.944,15.636-10.389,32.61-10.028,49.726c0.021,1.055-0.191,2.059-0.596,2.961c-1.057,2.379-3.42,4.066-6.197,4.123
					c-3.832,0.07-7.005-2.957-7.086-6.798c-0.402-19.151,3.452-38.147,11.215-55.636c1.794-4.038,3.793-7.994,5.997-11.851
					c17.329-30.327,45.425-52.087,79.122-61.279c33.691-9.187,68.941-4.739,99.268,12.616
					c30.325,17.324,52.087,45.418,61.275,79.116c8.005,29.332,5.645,59.849-6.534,87.266c-1.808,4.07-3.834,8.079-6.075,12.001
					C1049.929,2935.73,977.459,2958.579,916.949,2931.691z"/>
			</g>
		</g>
		<g>
			
				<linearGradient id="SVGID_00000049943796534682763960000016177076948754132659_" gradientUnits="userSpaceOnUse" x1="5953.0195" y1="1488.1802" x2="5881.4976" y2="1589.0895" gradientTransform="matrix(-1 0 0 1 8418.6396 0)">
				<stop  offset="0" style="stop-color:#F9B776"/>
				<stop  offset="1" style="stop-color:#F47960"/>
			</linearGradient>
			<path style="fill:url(#SVGID_00000049943796534682763960000016177076948754132659_);" d="M2487.851,1544.866
				c0,0,10.045-18.171,8.967-32.789c-1.08-14.618,8.029-36.087-1.665-34.498s-11.694,0.293-14.326,17.834
				C2478.196,1512.954,2454.529,1577.654,2487.851,1544.866z"/>
			<g>
				
					<linearGradient id="SVGID_00000040565537312988091110000006802524478574571698_" gradientUnits="userSpaceOnUse" x1="-5666.1855" y1="3109.2395" x2="-6191.2573" y2="3521.5273" gradientTransform="matrix(1 0 0 1 8793.9688 0)">
					<stop  offset="0" style="stop-color:#2B3582"/>
					<stop  offset="1" style="stop-color:#150E42"/>
				</linearGradient>
				<path style="fill:url(#SVGID_00000040565537312988091110000006802524478574571698_);" d="M2955.977,3214.534
					c-35.31-0.989-53.573-5.146-63.014-9.006c-0.022,3.51-0.002,7.084,0.112,10.786c0.121,3.954,3.05,7.113,6.652,7.089
					l193.874-1.251c6.187-0.04,9.802-7.216,7.122-12.888C3075.302,3211.363,3010.56,3216.061,2955.977,3214.534z"/>
				
					<linearGradient id="SVGID_00000172423703422744415240000008965669769430579633_" gradientUnits="userSpaceOnUse" x1="5339.3965" y1="3210.8408" x2="5804.0112" y2="3057.6438" gradientTransform="matrix(-1 0 0 1 8418.6396 0)">
					<stop  offset="0" style="stop-color:#2B3582"/>
					<stop  offset="1" style="stop-color:#150E42"/>
				</linearGradient>
				<path style="fill:url(#SVGID_00000172423703422744415240000008965669769430579633_);" d="M2901.237,3140.199
					c4.44-15.765,18.996-26.459,35.366-25.944l16.191,0.512c86.17,20.662,129.778,68.3,146.899,92.224
					c0.333,0.465,0.533,0.969,0.768,1.462c-25.421,2.1-90.162,6.798-144.745,5.271c-35.31-0.989-53.573-5.147-63.015-9.006
					C2892.862,3177.153,2896.931,3155.49,2901.237,3140.199z"/>
			</g>
			
				<linearGradient id="SVGID_00000121967722878575991020000016080630018587007406_" gradientUnits="userSpaceOnUse" x1="5476.5278" y1="2996.4023" x2="5448.9585" y2="3237.0088" gradientTransform="matrix(-1 0 0 1 8418.6396 0)">
				<stop  offset="0" style="stop-color:#F9B776"/>
				<stop  offset="1" style="stop-color:#F47960"/>
			</linearGradient>
			<path style="fill:url(#SVGID_00000121967722878575991020000016080630018587007406_);" d="M2980.017,3059.143l-13.542,65.185
				c-0.992,4.777-4.662,8.353-9.107,8.771c-5.441,0.51-13.188,0.81-20.978-0.334c-6.986-1.026-11.851-8.125-10.611-15.743
				l9.412-57.878H2980.017z"/>
			<g>
				
					<linearGradient id="SVGID_00000045590045736293473850000016152624819606938299_" gradientUnits="userSpaceOnUse" x1="5890.9858" y1="3109.2397" x2="5365.916" y2="3521.5261" gradientTransform="matrix(-1 0 0 1 8418.6396 0)">
					<stop  offset="0" style="stop-color:#2B3582"/>
					<stop  offset="1" style="stop-color:#150E42"/>
				</linearGradient>
				<path style="fill:url(#SVGID_00000045590045736293473850000016152624819606938299_);" d="M2699.46,3214.534
					c35.31-0.989,53.573-5.146,63.015-9.006c0.022,3.51,0.002,7.084-0.112,10.786c-0.122,3.954-3.051,7.113-6.654,7.089
					l-193.872-1.251c-6.187-0.04-9.803-7.216-7.122-12.888C2580.135,3211.363,2644.877,3216.061,2699.46,3214.534z"/>
				
					<linearGradient id="SVGID_00000175311270867344680230000003622356268550650759_" gradientUnits="userSpaceOnUse" x1="5671.417" y1="3194.0835" x2="6104.1069" y2="3051.4128" gradientTransform="matrix(-1 0 0 1 8418.6396 0)">
					<stop  offset="0" style="stop-color:#2B3582"/>
					<stop  offset="1" style="stop-color:#150E42"/>
				</linearGradient>
				<path style="fill:url(#SVGID_00000175311270867344680230000003622356268550650759_);" d="M2554.715,3209.264
					c0.234-0.495,0.434-0.998,0.768-1.462c17.121-23.924,60.729-71.562,146.899-92.224l41.338-1.304
					c0,0,18.407,31.993,18.755,91.256c-9.442,3.859-27.705,8.017-63.015,9.006
					C2644.877,3216.061,2580.135,3211.363,2554.715,3209.264z"/>
			</g>
			
				<linearGradient id="SVGID_00000086673681695115024070000003717583921847326375_" gradientUnits="userSpaceOnUse" x1="5701.1001" y1="3022.135" x2="5673.5308" y2="3262.7397" gradientTransform="matrix(-1 0 0 1 8418.6396 0)">
				<stop  offset="0" style="stop-color:#F9B776"/>
				<stop  offset="1" style="stop-color:#F47960"/>
			</linearGradient>
			<path style="fill:url(#SVGID_00000086673681695115024070000003717583921847326375_);" d="M2751.385,3051.624
				c-0.459,3.082-6.125,49.913-8.319,68.072c-0.521,4.314-3.646,7.653-7.587,8.124c-7.039,0.841-18.429,1.606-28.394-0.438
				c-5.376-1.101-9.268-6.266-9.268-12.27v-73.512L2751.385,3051.624z"/>
			
				<linearGradient id="SVGID_00000175303394372120020600000015796951991650798469_" gradientUnits="userSpaceOnUse" x1="5551.7202" y1="2256.6353" x2="5551.7202" y2="3379.238" gradientTransform="matrix(-1 0 0 1 8418.6396 0)">
				<stop  offset="0" style="stop-color:#3F2BF3"/>
				<stop  offset="1" style="stop-color:#3522CB"/>
			</linearGradient>
			<path style="fill:url(#SVGID_00000175303394372120020600000015796951991650798469_);" d="M2784.55,2196.972
				c0,0-99.705,378.913-97.902,855.735c0.033,8.694,6.137,16.197,14.644,17.989c12.536,2.639,30.964,5.775,46.219,5.347
				c8.144-0.229,14.952-6.268,16.321-14.299c13.981-81.984,94.209-543.843,139.921-618.824c0,0,30.074,411.352,20.46,624.764
				c-0.239,5.307,3.647,9.91,8.923,10.519c8.005,0.927,20.809,1.629,37.106-0.103c6.187-0.657,11.178-5.333,12.061-11.491
				c9.958-69.385,67.273-482.394,64.837-779.909c-0.137-16.778-44.37-89.728-44.37-89.728H2784.55z"/>
			
				<linearGradient id="SVGID_00000108292228205687967910000010354996466792729734_" gradientUnits="userSpaceOnUse" x1="5321.8682" y1="1773.3953" x2="5418.541" y2="1495.851" gradientTransform="matrix(-1 0 0 1 8418.6396 0)">
				<stop  offset="0" style="stop-color:#53D8FF"/>
				<stop  offset="1" style="stop-color:#3840F7"/>
			</linearGradient>
			<path style="fill:url(#SVGID_00000108292228205687967910000010354996466792729734_);" d="M3095.353,1867.43
				c27.101-74.17,17.269-163.733,17.167-164.628l-7.467,0.854c0.098,0.878,9.721,88.724-16.764,161.194L3095.353,1867.43z"/>
			<g>
				
					<linearGradient id="SVGID_00000022518240612348060100000003320364497101282229_" gradientUnits="userSpaceOnUse" x1="2690.6543" y1="1448.1807" x2="2091.5613" y2="2115.417">
					<stop  offset="0" style="stop-color:#F9B776"/>
					<stop  offset="1" style="stop-color:#F47960"/>
				</linearGradient>
				<path style="fill:url(#SVGID_00000022518240612348060100000003320364497101282229_);" d="M2400.635,1898.456
					c-22.375-121.731,9.734-322.352,9.734-322.352l43.736,45.326c0,0,7.385,163.771,38.521,231.547
					C2472.134,1855.419,2432.406,1864.569,2400.635,1898.456z"/>
				
					<linearGradient id="SVGID_00000060747128202880396260000008225912901189265590_" gradientUnits="userSpaceOnUse" x1="2958.9578" y1="1719.9891" x2="2082.0911" y2="3230.9006">
					<stop  offset="0" style="stop-color:#FDF53F"/>
					<stop  offset="1" style="stop-color:#D93C65"/>
				</linearGradient>
				<path style="fill:url(#SVGID_00000060747128202880396260000008225912901189265590_);" d="M2492.626,1852.977
					c5.877,12.793,12.598,22.18,20.278,26.384c28.114,15.437,82.656-72.645,123.306-148.986
					c29.235-54.869,51.314-103.658,51.314-103.658c29.236-33.026,101.648-37.563,169.006-33.353
					c70.12,4.351,134.672,18.15,139.35,19.179c0.187,0.047,0.28,0.047,0.28,0.047c32.277,4.256,60.296,7.811,80.551,10.384
					c23.67,2.993,45.327,14.687,60.951,32.744c61.885,71.616,197.727,267.753,37.842,465.388
					c-20.441-11.367-49.537-29.564-69.277-50.66c17.682-49.864,19.131-113.576-17.916-191.74c-1.263,6.222-2.854,12.35-4.725,18.384
					c-51.127,161.849-53.84,296.568-53.699,327.581c0,4.258-2.527,8.046-6.456,9.59c-67.219,26.944-196.699,10.9-240.108,4.443
					c-7.999-1.169-13.332-8.605-12.256-16.605c12.958-93.882-22.407-224.578-58.612-326.973
					c-212.46,210.544-288.345,131.049-311.822,3.331C2432.406,1864.569,2472.134,1855.419,2492.626,1852.977z"/>
			</g>
			
				<linearGradient id="SVGID_00000002354040251529802920000001145914847884091564_" gradientUnits="userSpaceOnUse" x1="5243.1191" y1="2203.5337" x2="5487.2129" y2="2203.5337" gradientTransform="matrix(-1 0 0 1 8418.6396 0)">
				<stop  offset="0" style="stop-color:#F9B776"/>
				<stop  offset="1" style="stop-color:#F47960"/>
			</linearGradient>
			<path style="fill:url(#SVGID_00000002354040251529802920000001145914847884091564_);" d="M2987.472,2206.304
				c18.452-10.352,90.013-54.794,118.77-135.859c19.747,21.075,48.82,39.287,69.279,50.645
				c-30.553,37.766-71.896,75.587-126.626,112.604l0,0c-1.941,42.121-34.319,57.713-41.725,71.357
				c-7.407,13.643,3.118,10.524-1.559,27.676c-4.678,17.152-53.794-27.287-65.489-37.422c-11.695-10.135-4.677-38.201-4.677-38.201
				s-0.78-5.847-3.898-17.542C2928.434,2227.891,2987.233,2206.392,2987.472,2206.304z"/>
			<g>
				
					<linearGradient id="SVGID_00000141415236326799605970000004803216784826329016_" gradientUnits="userSpaceOnUse" x1="5537.4341" y1="1455.506" x2="5432.1689" y2="1910.4005" gradientTransform="matrix(-1 0 0 1 8418.6396 0)">
					<stop  offset="0" style="stop-color:#F9B776"/>
					<stop  offset="1" style="stop-color:#F47960"/>
				</linearGradient>
				<path style="fill:url(#SVGID_00000141415236326799605970000004803216784826329016_);" d="M2960.747,1490.928l12.96,132.407
					c0,0-74.486,22.434-128.662-15.791l38.084-120.337L2960.747,1490.928z"/>
				<g>
					
						<linearGradient id="SVGID_00000072977711120709798050000000082588936027720065_" gradientUnits="userSpaceOnUse" x1="4170.6631" y1="916.0116" x2="3983.9226" y2="1163.0543" gradientTransform="matrix(-0.9332 -0.3594 -0.3594 0.9332 7089.4023 2036.3817)">
						<stop  offset="0" style="stop-color:#F9B776"/>
						<stop  offset="1" style="stop-color:#F47960"/>
					</linearGradient>
					<path style="fill:url(#SVGID_00000072977711120709798050000000082588936027720065_);" d="M2834.313,1378.09
						c-0.885,2.298-4.629,165.035-4.629,165.035l92.966,0.162l26.464-153.714C2949.114,1389.573,2849.126,1339.626,2834.313,1378.09
						z"/>
					
						<linearGradient id="SVGID_00000110434617643130128950000009707521767397571003_" gradientUnits="userSpaceOnUse" x1="4028.0469" y1="975.3388" x2="4251.1138" y2="975.3388" gradientTransform="matrix(-0.9332 -0.3594 -0.3594 0.9332 7089.4023 2036.3817)">
						<stop  offset="0" style="stop-color:#2B3582"/>
						<stop  offset="1" style="stop-color:#150E42"/>
					</linearGradient>
					<path style="fill:url(#SVGID_00000110434617643130128950000009707521767397571003_);" d="M2917.251,1408.791
						c3.021,2.835,4.557,6.881,4.175,11.006l-7.485,80.823c-0.114,1.226-0.38,2.414-0.829,3.561
						c-2.476,6.323-11.976,25.819-31.762,15.001c-16.865-9.221-32.491-17.462-45.181-17.859c-7.41-0.232-13.525,5.736-13.668,13.15
						c-0.294,15.269-0.266,46.094,3.606,73.475c0.97,6.863,7.116,11.779,14.033,11.342c18.254-1.153,53.834-4.471,82.409-13.651
						c4.695-1.509,8.159-5.46,9.054-10.308c3.939-21.336,15.221-81.091,21.002-97.469c5.371-15.216,26.248-20.485,36-22.141
						c3.701-0.629,6.949-2.744,9.009-5.883c6.178-9.414,15.082-29.746-9.407-45.154c-6.089-3.83-7.844-11.988-4.139-18.154
						c6.638-11.05,11.41-28.097-7.952-42.683c-19.601-14.765-38.59-7.811-50.219-0.363c-5.146,3.295-12.074,3.096-16.618-0.989
						c-2.021-1.816-4.794-2.86-8.561-1.907c-7.108,1.798-14.205-2.081-16.05-9.176c-3.165-12.165-11.746-25.82-34.189-27.049
						c-41.162-2.253-55.663,40.62-51.083,68.728c4.582,28.108,49.348,28.014,73.642,19.913
						C2890.885,1387.053,2908.929,1400.978,2917.251,1408.791z"/>
					
						<linearGradient id="SVGID_00000112608542799268978380000009811755593296956600_" gradientUnits="userSpaceOnUse" x1="3897.1592" y1="1111.6508" x2="4046.9426" y2="957.977" gradientTransform="matrix(-0.9332 -0.3594 -0.3594 0.9332 7089.4023 2036.3817)">
						<stop  offset="0" style="stop-color:#F9B776"/>
						<stop  offset="1" style="stop-color:#F47960"/>
					</linearGradient>
					<path style="fill:url(#SVGID_00000112608542799268978380000009811755593296956600_);" d="M2949.543,1507.694
						c0,0-5.881-49.319,13.398-56.671c19.28-7.351,42.738,4.101,29.745,35.893
						C2976.525,1526.461,2949.543,1507.694,2949.543,1507.694z"/>
				</g>
			</g>
			<g>
				
					<linearGradient id="SVGID_00000097487820265506840770000017883802174295948951_" gradientUnits="userSpaceOnUse" x1="3309.021" y1="1021.413" x2="2189.3267" y2="2512.0879">
					<stop  offset="0" style="stop-color:#FDF53F"/>
					<stop  offset="1" style="stop-color:#D93C65"/>
				</linearGradient>
				<path style="fill:url(#SVGID_00000097487820265506840770000017883802174295948951_);" d="M2710.911,1890.681
					c0.095,0,0.194-0.007,0.292-0.018c1.281-0.16,2.19-1.328,2.03-2.61c-0.127-1.028-12.731-103.25-5.89-132.702
					c0.293-1.258-0.489-2.515-1.748-2.807c-1.249-0.311-2.517,0.489-2.807,1.747c-7.03,30.257,5.277,130.105,5.804,134.341
					C2708.739,1889.815,2709.748,1890.681,2710.911,1890.681z"/>
			</g>
			<g>
				
					<linearGradient id="SVGID_00000034063781413021256200000014886973278530511524_" gradientUnits="userSpaceOnUse" x1="6034.9849" y1="1432.17" x2="5784.4785" y2="1785.6075" gradientTransform="matrix(-1 0 0 1 8418.6396 0)">
					<stop  offset="0" style="stop-color:#2B3582"/>
					<stop  offset="1" style="stop-color:#150E42"/>
				</linearGradient>
				<path style="fill:url(#SVGID_00000034063781413021256200000014886973278530511524_);" d="M2414.601,1436.353
					c0.11-2.745,1.435-5.298,3.615-6.968c2.18-1.669,4.99-2.284,7.668-1.673l66.862,15.208c2.596,0.59,4.334,3.037,4.038,5.683
					l-19.441,173.781c-0.084,0.749-0.464,1.434-1.055,1.902c-0.59,0.467-1.344,0.68-2.093,0.589l-58.362-7.072
					c-4.781-0.579-8.315-4.732-8.122-9.544L2414.601,1436.353z"/>
				
					<linearGradient id="SVGID_00000053521133260146861580000008023307262007417216_" gradientUnits="userSpaceOnUse" x1="6017.7407" y1="1449.5149" x2="5815.937" y2="1734.2382" gradientTransform="matrix(-1 0 0 1 8418.6396 0)">
					<stop  offset="0" style="stop-color:#A737D5"/>
					<stop  offset="1" style="stop-color:#EF497A"/>
				</linearGradient>
				<path style="fill:url(#SVGID_00000053521133260146861580000008023307262007417216_);" d="M2433.406,1446.379
					c0.086-1.558,0.864-2.995,2.12-3.921c1.256-0.925,2.859-1.242,4.372-0.863l43.99,10.997c2.544,0.636,4.224,3.056,3.93,5.662
					l-16.69,147.99c-0.088,0.777-0.493,1.481-1.118,1.949c-0.625,0.467-1.416,0.654-2.185,0.517l-40.566-7.219
					c-1.408-0.251-2.406-1.512-2.327-2.94L2433.406,1446.379z"/>
				
					<linearGradient id="SVGID_00000063629722624744649480000012936530328588404403_" gradientUnits="userSpaceOnUse" x1="5867.1768" y1="3628.3525" x2="5850.0288" y2="3652.5466" gradientTransform="matrix(-0.9792 -0.2029 -0.1066 0.5144 8596.0781 763.8746)">
					<stop  offset="0" style="stop-color:#8D55D1"/>
					<stop  offset="0.9964" style="stop-color:#1C2873"/>
				</linearGradient>
				<path style="fill:url(#SVGID_00000063629722624744649480000012936530328588404403_);" d="M2458.683,1442.395
					c-0.109,0.524,0.611,1.117,1.609,1.323l14.709,3.049c0.998,0.207,1.894-0.051,2.003-0.575l0.105-0.509
					c0.109-0.524-0.612-1.116-1.609-1.323l-14.71-3.049c-0.998-0.208-1.894,0.05-2.002,0.574L2458.683,1442.395z"/>
			</g>
			
				<linearGradient id="SVGID_00000097494098992347120990000004690227688265818252_" gradientUnits="userSpaceOnUse" x1="6040.6587" y1="1468.8495" x2="5892.6157" y2="1677.7225" gradientTransform="matrix(-1 0 0 1 8418.6396 0)">
				<stop  offset="0" style="stop-color:#F9B776"/>
				<stop  offset="1" style="stop-color:#F47960"/>
			</linearGradient>
			<path style="fill:url(#SVGID_00000097494098992347120990000004690227688265818252_);" d="M2391.38,1480.507
				c10.803-3.982,31.941-40.562,35.99-28.527c4.049,12.035-1.71,28.527,0,33.644c1.709,5.119,13.405,33.553,8.142,46.632
				c-3.797,9.438-10.063,38.482-13.255,53.921c-1.06,5.124-5.573,8.8-10.807,8.803c-5.233,0.003-9.749-3.668-10.814-8.792
				C2400.207,1584.133,2380.578,1484.486,2391.38,1480.507z"/>
		</g>
	</g>
</g>
</svg>
